<?xml version="1.0" standalone="yes"?>
<svg xmlns="http://www.w3.org/2000/svg" width="858" height="779">
<path style="fill:#bb4767; stroke:none;" d="M445 142C444.183 139.276 443.581 130.914 438.568 134.072C433.608 137.197 436 150.96 436 156C435.999 165.049 434.721 173.992 434.09 183C433.536 190.902 433.459 199.244 431.671 206.999C430.382 212.587 425.55 215.006 425 221C423.276 219.047 422.655 217.537 422 215C419.876 215.899 419.899 215.876 419 218C417.119 211.634 418.69 204.491 419.576 198C420.97 187.794 422.781 177.302 422.985 167C423.09 161.666 420.27 150.571 429 153C429.049 147.084 429.616 140.836 430.594 135C431.273 130.951 433.098 127.103 431.877 123C428.966 113.224 421.854 104.74 416.85 96C411.66 86.9349 404.866 79.2229 398.528 71C386.229 55.0454 374.388 40.3729 358 28.3596C351.043 23.2601 345.746 15.325 337 13.5146C325.475 11.1291 315.621 17.4629 307.015 24.5146C295.434 34.0044 297.629 50.8715 294.22 64C292.37 71.1235 287.777 77.0013 285.789 84C284.58 88.2528 285.315 92.7145 284.24 97C279.532 115.758 274.673 134.128 271 153C272.416 152.528 272.814 152.186 274 151C273.52 153.36 273.481 154.663 274 157C281.467 156.369 282.084 163.734 287.31 167.283C289.009 168.437 291.265 167.784 292.853 168.996C294.531 170.277 294.915 172.768 295.771 174.576C297.512 178.255 299.52 182.008 301.552 185.536C307.076 195.129 313.626 204.181 318.742 214.015C321.261 218.857 322.556 224.126 325 229C321.857 228.241 319.01 227.146 316 226C317.445 234.393 322.814 240.187 327.492 247C336.057 259.472 347.163 273.608 352 288C350.146 285.391 348.42 282.865 347 280C344.347 280.537 343.035 281.212 341 283C336.635 273.661 330.604 264.919 325.424 256C321.167 248.669 316.785 240.051 309 236C308.877 240.106 306.917 241.376 304 244C297.179 229.391 288.631 214.836 280.347 201C276.73 194.958 274.253 188.471 269.674 183.001C260.497 172.037 247.527 164.838 236 156.706C221.035 146.148 205.955 136.604 190 127.667C178.581 121.27 166.684 114.265 154 110.745C141.438 107.26 127.873 104.23 115 102.271C110.382 101.568 105.71 99.6664 101 100.189C83.0448 102.182 65.8275 112.907 67.3248 133C68.1956 144.684 73.2843 155.322 77.7755 166C90.9682 197.367 113.34 225.053 137.004 249L153.914 266.025C157.708 269.887 161.134 274.498 166.004 277.102C173.118 280.906 182.289 282.398 190 284.72C201.881 288.298 213.437 292.71 225 297.189C230.766 299.423 240.052 301.108 244.436 305.649C246.932 308.234 247.315 312.823 249 316C246.402 316.23 246.23 316.402 246 319C243.617 318.603 242.127 317.709 240 317C238.824 316.608 237.14 317.475 236 317C231.568 315.154 227.716 312.179 223 311C218.322 309.831 214.407 308.469 210 307C208.824 306.608 207.14 307.475 206 307C203.483 305.951 201.606 303.869 199 303C196.11 302.037 192.839 300.71 190 300C187.843 299.461 185.623 300.948 184 299C182.299 296.959 185.847 297.962 186 298C185.232 296.686 185.314 296.768 184 296C194.306 293.173 206.707 301.48 217 303C212.49 299.625 206.3 298.001 201.015 296.101C193.347 293.345 185.863 290.558 178 288C173.329 290.563 165.907 286.62 161 285.296C158.766 284.693 155.695 283.608 153.604 285.194C148.157 289.324 157.069 293.659 160 294.667C172.031 298.803 184.056 305.731 197 306C198.299 310.446 203.97 310.989 208 312.333C219.161 316.058 230.57 321.449 242 324C237.55 324.661 233.376 322.906 229 322C227.672 323.61 226.617 324.701 225 326L225 328C226.478 328.986 226.203 329 228 329C220.187 329.833 212.109 325.058 204.91 322.383C188.306 316.213 170.451 308.757 153 305.482C147.598 304.469 143.883 306.996 138.961 308.486C132.458 310.454 125.444 310.757 119 312.912C112.508 315.083 106.91 319.023 101 322.32C95.1806 325.567 88.9023 328.093 83 331.259C74.8882 335.611 69.0038 342.755 62 348.586C53.5403 355.63 43.1386 361.81 39.7994 373C34.1907 391.795 49.3324 402.609 60.625 415.17C68.0404 423.418 75.5469 433.15 85 439.273C93.8258 444.99 105.116 447.014 115 449.785C123.067 452.046 130.903 455.287 139 457.572C145.91 459.521 153.048 460.326 160 462C166.411 454.453 179.059 450.886 188 446.88C200.936 441.085 215.189 435.883 228.961 432.468C232.285 431.643 235.69 431.889 239.004 430.957C253.017 427.016 266.448 420.96 281 419C279.814 420.186 279.416 420.528 278 421C279.969 422.063 281.798 422.532 284 423C275.858 427.086 265.743 428.225 257 430.958C249.73 433.231 241.654 437.118 234 435L232 441C247.134 436.986 261.565 430.724 276.999 427.72C282.165 426.715 292.049 426.409 296 430C292.677 430.497 289.974 431.439 287 433C287.661 434.397 287.964 434.814 289 436C271.92 440.53 255.577 446.633 238 449C241.273 443.339 250.888 441.899 257 441C253.532 439.589 250.506 440.734 247 441.73C239.802 443.776 230.267 445.419 226 452C227.753 453.33 228.67 454.247 230 456C214.643 459.639 200.062 468.597 185 473.667C179.422 475.545 173.979 478.824 168 478C171.245 475.648 173.759 472.214 177.104 470.123C182.225 466.924 188.489 465.444 194 463.064C200.455 460.276 206.566 456.772 213 454C211.83 451.925 211.308 450.363 211 448C203.745 448.332 196.829 451.369 190 453.667C177.98 457.714 166.068 462.073 154 466C153.321 462.237 146.013 468.018 144 469.338C133.535 476.197 122.476 482.741 111 487.727C101.745 491.747 92.7186 495.226 84 500.426C68.3782 509.743 54.2541 522.545 40 533.796C25.7067 545.079 10.3657 556.496 3.00463 574C1.2552 578.16 2.53817 583.597 7.02315 585.37C10.6564 586.807 15.1778 585.765 19 586.259C29.7319 587.646 40.2244 589.81 51 590.866C59.9881 591.747 69.1185 590.658 78 591.153C96.4451 592.18 115.574 593.707 134 591.866C141.058 591.16 147.954 588.959 155 588.13C161.264 587.393 168.721 585.198 174.981 585.63C177.897 585.831 179.975 589.209 182.954 588.44C185.813 587.701 186.732 584.302 189.153 582.889C193.861 580.141 202.58 579.191 208 578C205.713 580.599 201.712 583.782 200.658 587.15C199.729 590.12 202.168 592.177 205.019 591.338C209.512 590.016 213.317 584.806 217 582C216.455 584.324 215.036 592.119 219.968 590.654C225.448 589.027 229.165 579.199 232.475 575C241.591 563.433 252.608 553.392 263 543C266.827 539.173 275.459 526.881 280 535L285 535C272.427 551.494 255.358 565.019 241.039 580C234.872 586.453 230.725 594.35 224.827 601C218.782 607.817 213.29 614.759 207.765 622C205.586 624.857 201.995 628.22 201.578 631.981C200.93 637.823 207.859 637.106 210.961 634.682C217.859 629.291 225.112 619.805 229 612C231.5 620.462 228.328 630.156 229.17 639C231.187 660.202 232.243 680.922 235.561 702C236.484 707.863 234.989 714.336 236.315 720C237.035 723.079 239.25 725.38 240.872 728C244.43 733.748 245.645 740.806 250.263 745.941C258.054 754.605 271.429 752.34 281 748.766C286.855 746.58 291.973 741.896 297 738.255C305.95 731.771 314.032 724.658 322 717.039C326.422 712.811 331.416 709.192 335.715 704.834C344.036 696.398 351.222 687.012 360 679C359.489 681.94 361.214 692.245 365.972 686.392C368.681 683.06 366.937 675.238 368.329 671.039C370.404 664.786 376.737 658.896 381 654C384.754 674.207 387.267 695.384 396.222 714C402.225 726.48 411.027 738.677 419.043 750C422.858 755.389 427.823 760.25 433 764.331C446.51 774.98 461.054 782.351 475.405 768.391C480.204 763.723 482.559 757.408 486.286 752C491.375 744.616 493.525 737.169 496.947 729C505.447 708.709 510.001 688.058 510 666C509.999 655.485 509.482 644.372 507.753 634C507.015 629.569 506.93 624.692 503 622L503 630C499.089 625.261 499.011 616.842 497.341 611C494.48 600.99 488.129 591.904 485 582C477.657 584.163 476.845 574.378 475.142 569C470.418 554.081 464.905 535.234 455 523C453.158 528.139 456.135 534.957 457.655 540C460.284 548.722 461.965 558.028 463.536 567C464.441 572.166 462.989 577.072 467 581C467.986 579.522 468 579.797 468 578C475.729 595.436 480.624 615.54 485.37 634C486.32 637.695 491.015 649.144 487.401 652.11C484.195 654.741 482.974 648.887 482.556 646.999C480.59 638.141 477.515 629.692 475 621C471.68 630.26 484.303 644.16 474 651C474.866 657.067 474.419 664.041 473 670C469.061 665.828 470.135 660.411 469.424 655C467.689 641.787 466.985 629.118 463.989 616C462.708 610.39 461.478 600.124 455 599C456.924 615.426 458.973 631.607 460.22 648.089C460.949 657.723 461.779 667.416 460 677C453.604 673.473 455.437 658.765 454.975 652C453.898 636.231 447.473 622.333 444.503 606.985C443.313 600.838 444.934 593.673 440 589C436.993 599.177 443.491 609.057 445.331 619C446.314 624.314 445.662 629.659 446.17 635C447.447 648.425 449 661.485 449 675L444 674C445.86 665.415 442.96 655.512 441.424 647C438.376 630.097 434.974 613.067 433.05 596C432.214 588.581 428.152 580.186 431 573L432 576C438.021 573.717 438.007 568.75 438 563C437.987 551.973 435.005 541.722 432.919 531.004C432.156 527.083 430.934 519.56 428 517C428.842 513.556 428.2 511.313 427 508L433 511L433 506L435 506C435.788 512.424 438.444 519.4 444 523C443.959 518.132 442.701 513.766 442 509L445 509L445 503L447 506C447.685 504.752 447.749 504.452 448 503C452.17 506.647 455.146 511.281 458 516C463.69 513.713 461.261 508.767 460 504C464.22 506.631 464.689 511.486 470 513C469.331 509.29 467.739 506.323 466 503C469.786 502.997 473.306 502.879 477 502C478.402 504.585 480.12 506.732 482 509C484.11 507.479 485.195 506.469 486 504C499.357 513.947 504.239 533.776 520 541L520 544C511.76 544.914 508.479 537.454 502 534C506.461 546.254 515.059 556.67 521.222 568.039C525.276 575.518 529.317 582.936 533.565 590.3C535.73 594.055 536.874 597.904 540 601C537.448 606.228 541.464 610.572 544.167 615.17C551.679 627.945 565.57 634.001 575.464 644.83C584.258 654.456 598.081 665.693 610 671.096C619.341 675.33 630.103 677.464 640 680.025C646.983 681.831 660.116 685.737 666.714 681.439C673.876 676.773 682.507 664.554 683.632 656C684.26 651.228 682.978 645.867 683.001 641C683.023 636.303 684.107 631.686 683.957 627C683.733 620.004 681.844 612.928 680.87 606C679.253 594.502 677.327 583.054 673.645 572C671.481 565.502 668.204 559.472 666 553C668.787 554.586 679.234 562.991 680.623 555.852C681.204 552.87 679.071 550.356 676.941 548.609C672.046 544.592 666.435 541.117 661.039 537.834C656.453 535.043 652.482 531.293 647.911 528.46C637.618 522.082 626.562 517.157 616.039 511.208C606.447 505.785 598.433 499.137 587 500L587 503L592 503C593.101 509.165 601.172 512.648 606 516.092C618.404 524.94 630.082 534.344 641 544.985C644.946 548.832 649.602 551.386 653.713 554.911C655.531 556.471 655.827 558.826 652.898 559.223C643.824 560.453 637.07 546.265 629 544C627.037 550.242 622.549 545.754 619.004 542.959C611.023 536.669 600.527 529.517 591 526C598.057 538.469 605.696 550.044 615.004 561C619.822 566.671 628.051 574.072 628 582C614.566 572.537 604.34 558.288 592.575 546.92C585.779 540.353 577.134 536.21 571 529L569 530C567.042 526.136 564.308 523.647 560 523C557.794 519.301 555.166 517.138 551 516C552.397 519.198 553.649 520.912 557 522L557 526C561.52 528.606 565.046 533.394 568.999 536.875C578.046 544.841 586.542 553.341 594.985 562C596.618 563.675 606.93 573.494 601.808 575.669C599.675 576.574 597.419 573.995 596.08 572.734C592.565 569.423 589.758 566.297 585 565C587.145 570.536 591.498 574.45 595.196 579C600.525 585.557 605.459 593.675 612 599C610.944 601.242 610.818 601.577 611 604C603.056 599.694 597.944 590.559 591.914 584C580.212 571.27 568.228 559.142 555.424 547.545C549.366 542.057 544.142 533.285 536 531C536.742 533.568 536.903 536.602 538.074 539C539.776 542.484 543.184 545.13 545.714 548C551.216 554.24 557.031 560.208 562.542 566.424C570.996 575.962 578.156 587.156 585.714 597.424C589.817 602.997 593.575 608.594 597.987 613.96C598.595 614.7 601.828 618.174 599.418 618.824C595.349 619.922 588.562 610.611 586.289 608C579.268 599.931 572.725 591.322 566 583C562.254 578.364 558.304 572.831 553 570C555.527 582.567 569.971 588.528 570.039 602.039C570.051 604.29 570.993 607.652 569.803 609.704C568.706 611.595 566.741 610.946 565.414 609.704C562.559 607.031 561.32 602.24 559.111 599C551.497 587.833 542.526 577.431 533.884 567.054C531.274 563.919 528.2 561.466 526 558L532 559C532 557.203 531.986 557.478 531 556L534 556C530.964 541.895 519.322 532.755 509.286 523.701C504.003 518.935 499.507 512.831 495.192 507.196C492.996 504.328 489.236 501.142 487.862 497.83C486.532 494.625 488.987 488.668 489 485C492.615 488.238 495.043 491.038 500 492C499.217 486.61 495.764 482.571 493 478L495 478C494.453 476.125 493.89 474.745 493 473C495.725 473.975 497.869 475.208 500 473C511.404 481.032 519.083 492.719 528.565 502.714C534.909 509.4 543.998 517.136 547 526C539.649 522.567 536.275 514.42 529 511L527 514C528.801 514.562 530.122 514.824 532 515L529 521C538.46 524.772 545.604 532.437 555 536C554.844 533.722 554.844 532.902 556 531C552.989 524.543 546.654 520.764 544 514C542.203 514 542.479 514.014 541 515C540.027 508.345 534.841 504.412 530.449 499.728C523.041 491.829 516.469 483.786 508 477L514 478C513.046 475.337 511.593 473.335 510 471C522.049 478.937 533.46 487.853 545.089 496.377C551.038 500.736 556.964 506.053 564 508.608C567.457 509.863 571.382 509.401 575 510C573.047 504.507 568.52 502.76 564.17 499.335C560.001 496.053 556.695 491.764 553 488C545.406 490.123 541.615 484.964 536 480.428C529.557 475.224 521.688 470.116 514 467C516.002 463.845 518.899 461.582 520 458C533.784 466.467 546.644 480.71 562 486C561.424 482.386 560.086 479.975 558 477C563.297 479.626 568.513 480.861 573.961 482.974C579.015 484.934 582.399 486.884 588 487C585.324 478.886 580.951 475.69 574 471C579.31 470.473 584.542 474.264 590 475C587.369 469.921 578.553 466.824 573 466.513C570.279 466.361 567.738 467.527 565 467.09C551.159 464.885 536.841 456.339 524 451C526.446 449.504 527.673 448.521 529 446C526.605 444.143 524.79 442.438 523 440C533.063 444.762 543.731 447.946 554 452.191C562.944 455.888 571.757 461.281 581 464L582 463L582 461C575.06 457.629 567.821 454.693 561 451.111C554.03 447.451 545.932 442.698 538 442C536.461 437.406 531.253 438.038 527 437C527.315 434.373 527.124 433.4 526 431C529.046 431.105 531.969 431.339 535 431C533.933 427.579 532.227 426.464 529 425L533 423C532.513 420.944 532.048 419.856 531 418C553.787 419.987 573.69 434.658 596 438C596 434.9 596.581 430.931 594.972 428.133C590.381 420.152 577.284 422.25 570 421.674C556.456 420.604 541.17 418.136 528 415C528.502 411.332 527.941 407.706 528 404C522.858 403.761 519.573 402.627 517 398C523.704 398.847 533.136 401.076 537 394C532.238 393.06 528.959 392.003 526 388C542.991 388 560.192 388.138 577 390.572C583.795 391.556 591.582 391.225 597 396L599 396C603.214 392.68 609.81 393.573 613 389L600 386C607.39 383.815 616.27 384.662 624 383.834C641.586 381.951 660.497 379.749 678 383C675.006 388.882 669.688 386.884 664 387.015C657.307 387.168 650.687 388.713 644 389C649.126 392.944 658.659 393.003 665 394.081C678.125 396.313 690.897 401.072 704 403L704 407C695.939 406.833 687.991 404.359 680 403.282C665.674 401.353 651.311 399.744 637 397.715C629.798 396.693 622.34 394.148 615.039 394.144C611.293 394.141 607.821 395.889 604 396L604 398C615.955 398.008 627.244 401.134 639 402.718C657.144 405.162 676.483 406.445 694 412C690.282 416.355 686.237 415.162 681 414.424C674.381 413.492 667.66 412.526 661 412L660 419C666.567 419.159 669.778 421.178 670 428C678.403 429.068 686.844 430.707 695 433C694.598 434.944 694.598 435.056 695 437C686.929 436.833 679.129 435 671 435C677.459 445.193 661.57 445.33 656 446.71C650.173 448.153 645.817 446.828 640 446.001C627.184 444.179 614.989 440 602 440C606.164 445.729 614.497 447.121 621 448.576C633.405 451.352 645.301 455.624 658 457.05C662.718 457.58 667.238 458.017 671.996 457.99C673.802 457.98 676.595 457.498 678.048 458.888C681.365 462.063 675.548 465.304 672.999 465.772C665.142 467.214 656.881 465.022 649 465C654.747 469.761 665.58 470.242 668 478C649.04 474.428 631.577 467.331 613 462C606.024 459.998 596.047 459.466 591 454C595.682 454.908 600.215 455.901 605 456C605.05 453.176 605.655 451.481 607 449C594.195 443.905 581.059 440.14 568 435.811C558.309 432.599 549.201 428.296 539 427C546.926 432.655 558.991 434.737 568 438.692C572.794 440.797 577.381 441.543 579 447C571.896 446.288 565.068 443.197 558 442C560.617 445.49 565.203 445.785 569 448C573.581 450.672 577.302 452.912 582 455C583.513 455.673 584.433 457.478 586 458C588.581 458.86 591.44 458.147 594 459C597.731 460.244 601.355 462.481 605 464C610.134 466.139 615.866 466.861 621 469C626.226 471.177 631.459 471.417 637 473L638 475C638.832 475.666 639.579 473.527 640 473C640 474.797 640.014 474.521 641 476L636 476C639.259 480.932 645.81 481.067 651 482.941C663.645 487.505 673.109 492.995 687 493C697.159 493.004 706.919 494.519 717 494.961C745.808 496.222 775.385 496.359 804 492.271C815.713 490.597 830.361 490.963 840.985 485.012C847.277 481.488 849.874 473.632 851.192 467C852.542 460.206 853.261 450.608 850.867 444C845.617 429.505 829.405 420.257 817 412.618C804.276 404.783 789.113 400.206 775 395.506C751.695 387.745 727.05 381.964 703 377C703.943 372.044 698.146 368.434 693.741 366.599C688.826 364.552 682.997 367.606 678 367.739C672.703 367.881 667.255 365.679 662 365C663.385 373.412 655.029 372 649 372C632.432 372 616.177 373.138 600 377C600.697 373.693 600.548 372.005 599 369L603 367C602.172 364.777 601.273 363.003 600 361C608.205 359.047 616.654 359.482 625 358.91C636.909 358.095 649.082 356.322 661 356.053C670.641 355.836 679.375 356.727 689 354.471C693.304 353.463 697.071 351.025 701 349.108C713.107 343.201 723.429 336.167 734 327.884C742.32 321.365 750.629 315.019 754.94 305C756.69 300.933 757.207 296.285 758.235 292C760.773 281.424 763.995 271.932 760.402 261C758.068 253.899 753.241 252.042 747 248.884C737.584 244.12 727.996 241.877 718 238.671C710.902 236.395 704.97 231.099 698 228.612C683.037 223.272 666.657 223.075 651 222.999C633.041 222.913 614.675 222.664 602 238C609.74 242.244 602.743 248.124 598 251.575L574 269.151C569.688 272.302 564.567 275.237 562 280C567.13 279.084 570.56 276.196 575.039 273.785C579.456 271.407 584.415 269.665 589.015 267.635C605.15 260.514 621.979 255.639 639 251.116C644.681 249.606 649.914 247.005 655.424 245.001C657.377 244.291 660.536 242.897 662.534 244.194C665.202 245.927 661.45 248.65 659.976 249.443C653.992 252.663 647.232 255.362 641 258.139C633.446 261.505 628.664 265.933 621.985 270.41C609.97 278.462 597.525 285.785 585 293C578.663 296.651 572.73 301.1 566 304L567 300C563.596 300.967 563.644 302.667 564 306C558.717 308.46 554.834 313.093 550.246 316.655C545.542 320.308 540.163 323.002 535.166 326.225C531.077 328.863 526.96 332.49 522 333C519.654 335.73 517.449 336.975 514 338C515.47 335.383 516.883 332.785 518 330C517.06 330.047 515.853 330.189 514.88 330.153C504.277 329.757 516.706 321.777 520 320.143C528.689 315.831 537.062 310.741 546 306.948C552.326 304.263 558.943 302.267 561 295L557 295L560 291C552.751 293.309 548.068 298.309 540 297C543.061 290.576 550.475 286.389 557 284C557.561 279.2 558.986 274.936 559 270C555.401 271.68 551.923 274.458 548.089 275.528C545.512 276.247 542.678 275.502 540 276C550.182 264.239 564.516 255.138 577 245.986C584.744 240.309 591.555 233.702 600 229C595.047 227.067 587.202 229.034 582 230C585.65 227.489 591.088 224.65 592.288 220C595.028 209.379 578.643 214.032 574.47 216.904C569.374 220.411 564.717 227.272 560.754 232C552.736 241.565 544.829 251.17 536 260L537 254L530 253C531.455 250.945 532.676 249.958 531 248C536.818 238.846 545.177 231.562 552.586 223.714C557.77 218.224 562.275 211.482 567.568 206.329C570.566 203.409 575.052 206.026 577.633 202.678C582.012 196.997 581.367 183.681 575 180C573.847 186.491 570.74 192.625 569 199C568.014 197.522 568 197.797 568 196C555.089 207.926 543.607 221.645 532.13 235C527.228 240.704 523.315 249.293 515 246C517.885 235.838 523.868 229.737 530.831 222C539.072 212.843 547.339 203.669 555.505 194.504C560.16 189.28 566.231 188.293 568.501 180.714C569.913 175.997 567.139 170.807 567 166C568.608 167.45 569.064 168.051 570 170C573.498 170 573.92 173.964 574 177C576.599 173.839 577.307 169.825 578.695 166C581.011 159.621 583.719 153.381 586.053 147C594.741 123.247 599 99.2384 599 74C599 63.52 598.87 52.1551 595.96 42C589.669 20.0479 576.36 -0.776672 551 1.09027C534.368 2.3147 523.643 17.0978 513 28C491.035 50.5009 476.662 78.1829 462.753 106C456.823 117.86 449.591 129.553 445 142z"/>
<path style="fill:#d76786; stroke:none;" d="M336 116C334.585 118.831 335.25 119.562 333 119C335.679 138.897 341.869 158.453 346.349 178C350.154 194.606 352.376 211.586 357 228C359.121 227.754 360.874 227.769 363 228C362.574 222.788 360.864 218.229 362 213C368.226 215.607 367.961 222.938 369.193 229C372.39 244.735 376.668 261.937 377 278L382 278C381.95 263.261 377.72 247.318 374.356 233C373.508 229.389 372.85 220.532 369 220C370.157 212.7 367.136 205.048 365.373 198C362.32 185.788 358.678 173.704 354.049 161.996C351.774 156.242 348.418 150.871 346.408 145C343.351 136.068 343.054 122.718 336 116z"/>
<path style="fill:#d76786; stroke:none;" d="M405 147C403.718 140.092 403.99 132.717 402 126C400.487 126.571 399.573 126.864 398 127C395.106 136.792 397 149.759 397 160C397 175.384 395.025 190.662 395 206C394.989 212.585 390.315 228.551 399 230C399.145 222.957 400.698 215.911 402 209C404.529 210.293 406.177 210.967 409 211L410 218C417.431 215.389 414.651 200.407 415.09 194C416.711 170.324 419 146.78 419 123C409.952 124.505 414.063 136.55 411.258 142.856C410.076 145.512 407.536 146.185 405 147M432 123C432.623 132.764 429.027 143.039 429 153C419.922 148.703 423.115 162.04 422.957 167C422.412 184.088 418 200.857 418 218L422 215C422.438 217.743 422.779 219.325 425 221C425.875 215.552 430.468 213.156 431.671 207.995C436.615 186.776 435.231 163.609 436.019 142C436.244 135.826 438.948 130.307 439 124L435 125C434.02 123.217 434.092 123.406 432 123z"/>
<path style="fill:#d76786; stroke:none;" d="M499 133C497.647 133.859 497.645 133.823 496 134C494.204 139.615 493.102 145.525 490.91 151C489.2 155.27 486.467 158.916 484.42 163C478.685 174.441 473.748 186.774 469.329 198.714C467.386 203.962 464.662 208.536 463.27 214C462.741 216.077 461.454 219.277 463.042 221.203C466.152 224.973 473.265 218.156 477 218L475 222C477.495 223.789 477.377 226.472 479 229C484.523 219.357 487.16 208.518 490.667 198C496.911 179.269 503.144 160.942 504 141C500.801 139.033 500.954 135.973 499 133z"/>
<path style="fill:#d76786; stroke:none;" d="M360 135C359.274 137.179 359.561 136.78 358 136C358.033 147.85 361.854 159.456 364.199 171C367.833 188.885 369.442 207.201 373.425 225C376.69 239.591 382.354 255.002 383 270C384.635 269.455 384.455 269.635 385 268C387.216 270.701 388.638 272.928 392 274L393 269L394 273L401 273C401 261.786 399.793 250.911 397.13 240C395.873 234.853 395.054 229.611 390 227L391 235C388.284 228.573 388.332 216.699 382 213L382 217C375.649 209.499 376.134 198.36 374.565 189C371.558 171.07 367.879 152.226 362 135L360 135M297 139C296.101 141.124 296.124 141.101 294 142C299.129 163.594 312.123 183.681 320.85 204C323.279 209.658 330.82 221.421 327 227C330.793 238.983 340.579 248.232 345 260C341.816 255.276 339.282 248.274 333 248C337.907 260.964 347.505 273.355 355 285C363.394 281.314 360.401 274.46 356.886 268.015C353.596 261.983 350.688 255.762 346.922 250C343.253 244.386 338.682 239.176 336 233L341 234C340.47 226.004 335.867 218.01 333.003 210.572C326.527 193.755 318.54 177.976 310.244 162.015C306.805 155.398 303.214 142.936 297 139z"/>
<path style="fill:#d76786; stroke:none;" d="M461 142C460.014 143.479 460 143.203 460 145L457 144C454.341 157.713 451.606 171.354 448.576 185C446.884 192.615 444.621 200.198 444 208L442 208C442.001 195.363 445.44 183.452 446.833 171C447.153 168.138 449.13 160.861 445.722 159.256C440.298 156.702 440.514 170.374 440.08 173C437.381 189.334 432.713 205.389 432 222L436 221C434.15 228.788 431.083 235.956 430 244C427.886 236.644 430.831 228.689 429 221C424.546 225.24 425.118 231.247 424.27 237C422.797 246.994 418.703 256.753 418.344 266.956C418.23 270.202 420.459 272.678 423 270C424.171 272.312 425.175 274.546 426 277C429.358 274.884 429.685 271.815 430 268L435 272C441.186 258.025 441.598 240.874 445 226C442.636 224.199 443.651 223.315 446 222L448 231C449.416 230.528 449.814 230.186 451 229C448.78 239.729 445.573 250.533 442.34 261C440.424 267.204 437.569 273.522 437 280C438.939 280.892 439.519 281.402 441 283C447.407 271.214 449.909 256.954 452.887 244C454.866 235.394 457.987 226.671 459.443 218C459.951 214.973 459.038 212.031 459.21 209C459.42 205.287 460.565 201.619 461.339 198C462.854 190.908 464.918 184.032 466.701 177C467.239 174.88 468.244 171.471 465.687 170.176C460.559 167.58 458.614 182.034 458 185C456.972 175.651 459.678 165.208 461.322 156C462.22 150.967 464.409 147.138 463 142L461 142z"/>
<path style="fill:#d76786; stroke:none;" d="M270 153C271.03 156.933 273.476 160.283 275.139 164C280.476 175.931 287.083 188.602 291 201C282.459 193.115 279.622 178.776 267 176C267.524 183.012 273.08 187.923 276.194 194C284.78 210.762 293.617 228.258 304 244C307.406 241.726 309.14 240.248 309 236C323.811 247.386 330.889 267.72 341 283C342.995 281.666 344.721 280.745 347 280C347.967 282.932 349.421 285.348 351 288C352.432 282.097 346.184 275.769 343.309 271C338.203 262.531 333.095 254.159 327.492 246C322.969 239.414 318.148 233.851 316 226C318.679 227.421 321.024 228.417 324 229C322.043 212.953 309.997 199.078 302.028 185.536C299.328 180.948 297.25 172.276 293.262 168.851C291.83 167.62 289.78 167.873 288.181 166.985C282.285 163.713 282.014 156.374 274 157L272 153L270 153M327 153C325.418 159.277 328.52 165.867 330 172C334.076 188.89 341.084 205.075 345 222C347.655 221.093 350.235 220.473 353 220C352.295 211.913 349.17 203.698 346.67 196C343.728 186.942 341.293 178.168 337.414 169.428C334.643 163.184 333.602 156.227 327 153z"/>
<path style="fill:#bb4767; stroke:none;" d="M270 156C270.004 161.864 269.12 169.525 271.395 175C273.582 180.263 278.282 184.417 281.572 189C284.513 193.098 286.634 198.331 291 201C288.905 190.128 281.707 178.264 277.281 168C275.419 163.681 274.052 158.654 270 156z"/>
<path style="fill:#d76786; stroke:none;" d="M567 166C567.052 170.672 569.835 176.303 568.181 180.714C565.514 187.822 560.14 188.821 555.505 193.761C547.165 202.649 539.017 211.904 530.831 221C523.649 228.98 517.231 235.222 515 246C522.393 250.456 525.886 243.371 530.424 238C538.98 227.874 547.76 217.97 556.443 208.039C560.082 203.876 564.612 201.106 567 196L569 197C572.311 190.45 575.397 183.371 576 176L574 177C573.657 172.498 571.233 169.786 569 166L567 166z"/>
<path style="fill:#d76786; stroke:none;" d="M527 183C523.738 183.016 517.214 181.441 514.444 183.078C511.072 185.071 508.367 190.665 506.539 194C503.997 198.636 502.447 203.623 500.041 208.286C496.232 215.666 491.201 222.463 491 231C494.639 231.05 499.413 232.709 502.61 230.322C507.074 226.987 510.428 218.69 513.495 214C522.253 200.61 534.441 186.528 539 171C532.257 170.788 528.543 177.001 527 183z"/>
<path style="fill:#d76786; stroke:none;" d="M561.333 184.667C561.278 184.722 561.222 185.778 561.667 185.333C561.722 185.278 561.778 184.222 561.333 184.667M237 191C239.991 198.721 247.421 204.932 252.925 211C261.481 220.433 269.453 230.328 277.729 240C282.43 245.493 286.425 253.86 293 257C287.434 262.928 296.131 267.408 300 272C294.892 268.122 290.582 262.961 284 262C282.35 256.12 277.218 252.211 273 248C265.525 240.537 257.436 233.728 249 227.374C243.101 222.931 238.613 219.085 231 219L234 225C225.837 220.455 217.335 211.248 208 210C208.777 212.489 209.817 214.672 211 217L208 216C209.237 220.41 212.41 223.305 215 227C211.517 227.588 210.353 228.763 209 232C233.475 248.19 252.632 273.557 279 287L278 292C290.566 300.382 300.078 314.623 314 321L313 318C315.43 319.182 317.313 319.73 320 320C320.805 311.433 313.845 308.227 308 303.05C297.434 293.692 285.177 284.578 273 277.409C269.408 275.294 265.236 275.557 262 273C264.09 273.387 263.711 273.384 264 271C268.659 272.161 273.659 275.8 276 270C274.805 268.777 274.684 268.58 274 267C285.967 275.871 294.061 287.793 304.59 298.247C308.973 302.599 313.311 307.457 319 310C321.364 307.09 332.168 311.584 336 313C334.629 307.979 330.944 305.078 327.983 300.961C327.188 299.856 325.128 297.229 326.751 295.921C328.054 294.87 329.87 296.381 330.831 297.167C334.115 299.853 336.102 303.108 340 305C339.992 302.89 340.051 301.83 341 300C331.858 283.967 315.133 271.5 302.015 258.911C297.157 254.248 293.933 248.265 289.789 243C282.762 234.071 275.226 225.52 267.715 217C259.418 207.589 248.197 200.216 241 190L237 191z"/>
<path style="fill:#d76786; stroke:none;" d="M531 247C531.575 249.482 531.06 250.654 530 253C532.356 253.563 534.581 253.834 537 254L536 260C551.609 249.004 560.064 229.794 574.47 217.482C578.408 214.116 591.93 210.203 586.677 202.319C583.51 197.563 578.562 203.264 575 204.117C572.778 204.648 570.421 203.809 568.343 205.042C565.95 206.463 565.208 209.471 563.455 211.486C560.855 214.474 557.7 216.966 555.08 219.989C547.194 229.089 537.493 236.784 531 247z"/>
<path style="fill:#bb4767; stroke:none;" d="M440 210L440 212L442 212L442 210L440 210z"/>
<path style="fill:#d76786; stroke:none;" d="M629 211L630 215C620.284 213.403 612.782 219.798 605 224.783C589.326 234.823 574.582 246.435 560 257.997C553.342 263.276 544.284 268.524 540 276C542.367 275.84 544.867 276.593 547.17 276.257C551.34 275.649 555.563 272.267 559 270C558.956 274.862 556.676 279.345 557 284C550.378 285.519 541.955 290.182 540 297C547.965 298.825 553.131 294.245 560 291C558.814 292.186 558.472 292.584 558 294C559.478 294.986 559.203 295 561 295C557.539 302.359 550.875 304.25 544 307.387C535.483 311.273 527.381 315.983 519 320.143C516.196 321.534 512.616 322.9 510.658 325.478C508.426 328.418 511.237 330.345 514.049 330.441C515.293 330.484 516.779 330.142 518 330C516.53 332.617 515.117 335.215 514 338C517.732 337.322 520.098 336.342 522 333C527.434 332.887 531.614 329.058 536.075 326.225C545.947 319.957 554.506 312.662 564 306C563.823 302.662 563.694 301.215 567 300L566 304C572.638 302.047 578.07 297.588 584 294.154C595.451 287.522 606.963 280.979 618 273.667C626.333 268.147 632.743 262.265 642 258.139C648.188 255.381 655.05 252.725 660.941 249.443C662.543 248.55 665.669 245.957 663.338 244.063C661.539 242.602 658.197 243.749 656.286 244.367C650.413 246.264 644.951 249.207 639 250.848C621.983 255.54 605.276 260.291 589.015 267.215C580.043 271.034 571.251 277.328 562 280C571.579 268.232 587.866 259.907 599.999 250.845C604.412 247.549 610.018 240.636 602 238C609.969 231.208 618.775 226.278 628 221.471C632.422 219.166 637.405 218.097 639 213L629 211z"/>
<path style="fill:#d76786; stroke:none;" d="M405 215L406 273L410 274C413.149 260.773 411.836 243.396 410 230C409.302 224.904 409.57 218.131 405 215z"/>
<path style="fill:#d76786; stroke:none;" d="M456 278C456.147 272.215 459.335 267.233 461.573 262C465.201 253.514 468.759 244.174 470 235L466 235C462.866 245.879 456.714 256.52 452.305 267C450.11 272.218 447.597 277.816 455 279C453.661 281.325 452.68 283.402 452 286L456 288C457.729 284.926 458.862 282.681 462 281C461.808 285.772 461.254 290.389 460 295L463 298C470.871 286.718 477.77 274.256 483.966 262C487.691 254.631 492.297 247.121 494 239C492.263 239.062 492.36 239.02 491 238C483.892 252.263 474.994 265.718 468 280C468.555 273.994 471.957 268.595 474.086 263C476.697 256.135 478.017 248.816 480.598 242C483.415 234.56 487.646 227.968 489 220C482.977 221.043 481.098 229.164 478.269 234C470.142 247.891 462.192 263.127 456 278z"/>
<path style="fill:#bb4767; stroke:none;" d="M224 222L225 226C226.643 223.921 226.183 223.419 224 222z"/>
<path style="fill:#d76786; stroke:none;" d="M195 231C209.411 244.971 225.607 257.669 241 270.59C248.789 277.127 256.547 285.999 266 290C269.623 281.205 261.113 276.721 255 271.59C241.902 260.595 228.49 249.935 215 239.424C209.03 234.773 203.029 228.746 195 231M354 235C355.834 245.788 361.586 255.806 365.379 266C367.091 270.602 367.652 276.259 372 279C372.087 276.326 372.993 273.683 372.748 270.996C371.958 262.3 366.574 253.751 362.965 246C360.827 241.409 359.451 235.938 354 235z"/>
<path style="fill:#bb4767; stroke:none;" d="M384 244C384.022 251.823 385.545 260.942 389 268C391.178 262.407 387.67 248.659 384 244M239 245C242.839 251.352 249.236 254.643 255 259.039C259.236 262.269 262.652 265.921 268 267C261.787 258.559 249.303 247.661 239 245z"/>
<path style="fill:#d76786; stroke:none;" d="M471 304C475.885 302.624 479.696 298.658 484 296C484.406 298.092 484.217 298.02 486 299C485.11 300.745 484.547 302.125 484 304C490.036 302.287 493.705 296.659 497.92 292.289C505.34 284.593 512.683 277.186 519.59 269C522.623 265.406 526.005 262.279 528 258L527 257C521.357 258.918 518.04 264.426 512 265L519 252C512.15 252.521 509.295 258.208 505.05 263C496.765 272.354 488.085 281.495 480 291C476.397 295.235 472.14 298.365 471 304z"/>
<path style="fill:#d76786; stroke:none;" d="M258 299C257.24 295.72 256.395 293.395 257 290C242.937 280.513 228.092 273.811 213 266.247C210.204 264.846 200.637 257.872 198.175 262.304C196.088 266.06 207.819 271.539 210.282 273.022C219.288 278.449 228.905 282.693 237.92 288.08C244.347 291.921 250.668 297.228 258 299z"/>
<path style="fill:#d76786; stroke:none;" d="M575 305C580.224 306.554 579.463 309.467 578 314C580.266 313.81 592.41 312.451 588.248 318.442C586.256 321.311 582.799 321.57 581 325L586 325L586 330C589.812 329.437 593.343 328.19 597 327C598.315 321.936 601.785 323.972 606 323.39C610.613 322.752 615.549 320.88 620 319.492C639.156 313.52 659.257 308.168 679 304.614C684.325 303.656 689.598 303.106 694.999 302.995C696.874 302.957 699.673 303.182 700.914 301.416C703.555 297.654 697.056 297.044 694.999 297.005C687.245 296.858 679.662 297.384 672 298.59C664.941 299.701 658.002 301.197 651 302.6C640.114 304.781 629.028 309.038 618 310C627.302 305.046 637.55 301.998 647 297.247C649.344 296.069 655.393 293.931 654.248 290.279C652.668 285.237 640.909 291.555 637.999 292.424C620.48 297.651 603.518 305.002 586 310C597.95 303.027 611.233 298.594 624 293.397C637.922 287.729 651.845 281.355 666 276.344C672.301 274.113 678.813 271.991 684.981 269.441C686.946 268.628 690.087 266.951 689.248 264.279C688.342 261.388 684.068 262.611 682 263.002C675.101 264.303 668.558 265.755 662 268.306C640.471 276.683 618.201 283.413 597.039 292.729C590.239 295.723 578.576 298.18 575 305z"/>
<path style="fill:#bb4767; stroke:none;" d="M282 264C284.878 274.224 299.226 281.086 306.996 287.593C310.99 290.938 314.163 294.909 319 297C313.655 289.413 305.96 283.953 299.17 277.75C293.808 272.852 288.674 267.057 282 264z"/>
<path style="fill:#d76786; stroke:none;" d="M488 307L490 307L489 311L499 308L493 315C497.77 316.665 500.267 314.899 503.999 311.714C511.442 305.362 525.276 296.648 528 287C519.126 288.008 509.778 299.343 503 305C508.064 298.038 515.05 292.317 520.911 286C526.629 279.837 531.439 273.346 538 268C532.377 263.081 527.785 271.493 523 274.13C520.852 275.313 518.345 275.429 516.325 276.904C510.693 281.015 506.103 287.836 500.92 292.65C496.232 297.005 490.736 301.134 488 307z"/>
<path style="fill:#d76786; stroke:none;" d="M157 278C158.809 283.602 166.002 284.657 171 286.715C177.976 289.588 185.828 290.016 192.91 292.545C201.032 295.445 208.424 300.015 217 302C206.281 302.689 195.922 295.233 185 295L186 298C183.91 297.613 184.289 297.616 184 300C191.513 300.343 198.084 303.618 205 306.237C211.82 308.82 219.074 310.38 226 312.671C232.742 314.9 238.894 317.955 246 319C246.688 314.761 248.019 310.454 245.567 306.394C242.316 301.01 230.567 298.984 225 296.797C203.69 288.425 180.203 278.064 157 278M539 285C525.45 296.142 511.236 306.473 498 318C498.997 321.012 498.805 322.944 498 326C499.195 327.223 499.316 327.42 500 329C508.435 324.694 515.423 317.412 523.13 311.911C527.418 308.851 532.395 306.252 534 301L529 301C533.339 296.089 541.118 292.362 543 286C541.203 286 541.479 286.014 540 287C540 285.147 540.3 285.65 539 285z"/>
<path style="fill:#d76786; stroke:none;" d="M138 295C139.974 301.097 150.151 302.134 155.285 305.56C159.358 308.277 164.379 308.71 168.985 310.155C176.673 312.567 184.309 315.523 191.985 318.049C203.883 321.965 215.486 328.408 228 330C226.861 328.985 226.388 328.691 225 328L225 326C227.133 324.845 227.782 324.118 229 322C233.312 323.224 237.522 324.61 242 325C234.872 319.606 225.233 318.246 217 315.189C197.786 308.054 179.288 301.065 159 297.676C151.926 296.494 145.232 293.427 138 295z"/>
<path style="fill:#d76786; stroke:none;" d="M247 298C251.993 304.133 259.1 306.921 266 310.369C274.587 314.66 283.046 319.521 292 323C281.201 323.105 270.71 313.246 260 311L259 312C260.711 316.489 264.849 318.373 269 320.501C277.546 324.881 287.571 331.183 297 333C299.58 328.9 304.678 328.703 307 324C296.716 317.504 285.198 312.44 274.001 307.73C268.607 305.461 261.198 303.978 257 300L254 301C252.648 298.44 249.834 298.182 247 298z"/>
<path style="fill:#d76786; stroke:none;" d="M586 338C590.329 340.077 595.273 339.827 600 340C600.065 343.754 598.55 345.721 597 349C614.826 347.444 633.208 338.127 650 332.344C656.929 329.958 665.674 329.042 666 320C675.952 316.762 685.704 312.998 696 311L696 307C682.64 305.576 666.686 312.095 654 315.975C631.312 322.915 608.014 329.053 586 338z"/>
<path style="fill:#d76786; stroke:none;" d="M246 321C249.84 324.181 254.426 325.483 259 327.308C267.597 330.738 276.302 333.988 285 337.177C290.712 339.272 294.888 342.09 301 340C299.231 334.522 292.921 333.605 288 331.772C274.483 326.739 260.445 322.03 246 321z"/>
<path style="fill:#d76786; stroke:none;" d="M520 343C521.012 345.348 522.47 348.765 525.339 349.274C528.631 349.858 532.848 347.071 536 346.225C547.638 343.098 558.717 339.094 570 335L569 332C563.65 332.723 559.431 333.837 554 333L554 329C542.307 331.433 530.48 337.391 520 343z"/>
<path style="fill:#d76786; stroke:none;" d="M248 333C250.615 337.595 255.339 338.142 260 339.914C269.604 343.567 279.601 347.547 290 348L291 343C276.662 339.683 262.654 333.87 248 333M677 343C682.079 341.044 687.206 339.61 692 337C687.249 335.436 679.789 339.029 677 343z"/>
<path style="fill:#d76786; stroke:none;" d="M133 345C137.486 347.688 142.923 347 148 347C147.209 349.262 146.279 351.469 148.372 353.398C150.31 355.184 153.549 355.085 156 355.424C162.851 356.37 170.082 356.981 177 357C167.878 359.696 157.431 357.395 148 358.054C142.259 358.455 136.792 361.252 131 362C133.945 363.926 136.582 363.281 140 363.513C146.679 363.967 153.299 363.989 160 364C181.031 364.034 202.013 367.986 223 368C214.832 370.414 206.317 368.041 198 368.001C182.639 367.927 167.388 369 152 369C142.339 369 129.091 368.07 121 374C132.03 377.26 143.855 374.063 154.996 375.112C157.983 375.393 160.311 377.098 163.17 377.73C169.88 379.213 177.185 379.838 184 380.866C193.531 382.303 203.674 381.78 213 384C205.883 386.104 198.303 384.309 191 385.129C172.943 387.156 154.305 389.848 136 390C134.482 392.803 132.892 393.668 130 395C138.878 398.725 152.456 395 162 395C160.984 401.646 172.073 400.495 177 401.545C182.721 402.764 189.173 402 195 402L230 402C229.014 403.479 229 403.203 229 405C233.538 405.983 238.338 404.925 243 404.861C254.331 404.706 265.715 404.031 277 404C276.999 401.659 277.13 400.147 279.354 398.837C280.768 398.005 284.562 397.602 284.079 395.17C283.407 391.792 275.367 393 273 393C261.412 393 248.307 394.692 237 392C243.299 390.138 250.463 391 257 391L293 391C289.019 387.984 282.873 388.905 278 388C279.074 385.337 281.299 382.206 279.638 379.313C277.843 376.188 272.14 376.182 269 376.039C259.296 375.598 249.744 375 240 375L241 371L249 371L247 365L252 365L249 368C260.064 374.427 272.47 374.741 285 375L283 371L288 371C286.321 368.953 285.278 367.636 285 365C270.411 365 256.513 362.083 242 361.09C238.781 360.869 235.132 360.669 232 361.545C229.704 362.187 227.528 363.824 225.034 363.268C220.63 362.286 221.32 358.317 222 355C228.423 356.193 235.43 357.558 241.961 357.777C246.428 357.927 250.393 356.641 255 357.285C265.975 358.82 276.903 362.907 288 363C286.85 360.981 285.985 360.277 284 359C286.473 357.956 294.715 357.375 294.654 353.91C294.571 349.139 284.293 348.822 281 348.25C266.265 345.691 249.666 342.784 235 346C241.105 348.567 249.401 348.31 256 349.181C261.835 349.95 267.016 351.95 273 352C266.7 353.845 260.318 351.473 254 350.414C244.736 348.859 235.322 348.316 226 347.156C201.35 344.087 175.943 339.32 151 341.054C144.984 341.472 138.974 344.001 133 345M588 344C583.916 346.175 582.473 351.227 577.96 352.762C572.837 354.505 565.454 353.663 560 354.09C553.055 354.632 545.921 356.252 539 357.272C535.72 357.755 524.249 358.813 526.801 364.718C527.947 367.369 530.933 366.19 533.004 365.705C537.289 364.703 541.764 364.111 546.089 363.245C560.815 360.295 586.584 363.971 588 344M662 348L669 347C666.266 345.86 664.003 345.707 662 348z"/>
<path style="fill:#d76786; stroke:none;" d="M653 355L660 349C654.455 346.679 650.314 349.086 653 355M600 361L603 367L599 369C600.111 371.904 600.378 373.915 600 377C616.785 373.882 632.926 372 650 372C655.957 372 664.235 373.395 662 365C667.177 365.947 671.806 365.066 677 365.004C683.866 364.922 691.38 365.957 698 364L697 358L692 358L691 354C685.254 355.067 678.835 356.568 673.004 356.671C668.324 356.753 663.714 355.772 659 356.09C647.322 356.876 635.674 358.111 624 358.91C616.061 359.454 607.699 358.723 600 361z"/>
<path style="fill:#d76786; stroke:none;" d="M534 372C532.548 372.251 532.248 372.315 531 373C531.555 375.315 531.544 376.686 531 379C539.19 378.927 547.013 376.111 555.039 375.128C562.263 374.243 569.901 374.847 576.941 373.837C580.392 373.342 580.766 370.997 581 368L574 368C572.648 363.399 568.844 364.99 565 365.741C557.45 367.215 549.653 367.532 542 368.06C538.789 368.282 534.475 368.551 534 372z"/>
<path style="fill:#bb4767; stroke:none;" d="M262.333 369.667C262.278 369.722 262.222 370.778 262.667 370.333C262.722 370.278 262.778 369.222 262.333 369.667M161 372C162.324 374.071 162.547 374.139 165 374C163.457 372.733 162.952 372.511 161 372z"/>
<path style="fill:#d76786; stroke:none;" d="M600 385C603.469 387.669 608.678 388.365 613 389C609.029 392.768 602.362 391.999 599 396L597 396C593.227 390.977 584.726 391.445 579 390.715C561.416 388.47 543.752 388 526 388C528.291 392.624 532.169 393.372 537 394C531.639 400.499 524.444 398.588 517 398C518.929 403.294 522.765 403.888 528 404C527.626 407.735 527.958 411.273 528 415C534.578 416.945 542.161 417.315 549 418.285C555.995 419.278 562.94 421.305 570 421.816C577.637 422.368 590.402 420.606 594.972 429.055C596.401 431.696 595.998 435.105 596 438C574.371 432.877 553.519 419.029 531 418L533 423C531.248 423.564 530.458 423.919 529 425C531.734 426.784 533.505 428.1 535 431L526 431C526.658 433.134 526.952 434.772 527 437C531.092 438.461 535.715 438.063 538 442C553.432 444.323 567.298 455.914 582 461L582 463L581 464C561.784 455.722 542.875 446.766 523 440C524.487 443.043 526.009 444.41 529 446C527.48 447.954 525.896 449.407 524 451C535.549 457.715 550.929 464.223 564 467.235C567.125 467.955 569.901 466.657 573 466.853C578.811 467.221 586.449 470.405 590 475C584.734 473.91 579.169 469.792 574 471C577.046 473.917 580.993 475.884 583.767 479.093C585.738 481.375 586.608 484.374 588 487C577.879 486.558 567.508 480.358 558 477C559.495 480.049 561.137 482.675 562 486C546.943 478.486 535.434 464.659 520 458C518.35 461.311 515.504 463.57 514 467C521.146 471.173 528.549 475.217 535 480.428C540.793 485.108 545.198 491.214 553 488C558.794 496.809 570.164 501.085 575 510C570.99 509.067 566.813 509.375 563 507.687C543.433 499.023 529.546 479.699 510 471L514 478L508 477C515.054 484.988 523.048 492.756 530.449 500.576C534.662 505.027 539.41 508.888 541 515L544 514C545.874 521.179 551.878 525.148 556 531C554.227 532.651 554.548 533.589 555 536C546.067 531.022 538.996 523.899 529 521C531.063 517.758 530.113 516.02 527 514C528.035 512.814 528.339 512.396 529 511C535.306 515.475 539.368 523.853 547 526C545.719 519.698 539.917 513.988 535.611 509.339C530.275 503.578 524.757 497.955 519.725 491.921C514.062 485.129 508.174 476.812 500 473C497.504 474.3 495.753 473.659 493 473L495 478L493 478C495.027 482.883 498.673 486.844 500 492C495.456 490.545 492.913 487.368 489 485C488.956 488.794 485.914 494.496 487.157 497.83C488.498 501.429 492.835 504.933 495.192 508C499.303 513.349 503.455 519.11 508.428 523.701C518.642 533.132 529.727 541.969 534 556C532.085 554.723 532.915 554.723 531 556L532 559L526 558C528.158 562.922 532.87 566.84 536.261 571C544.017 580.514 552.188 589.845 559.111 600C560.505 602.044 566.241 616.047 569.934 610.623C571.356 608.535 570.206 605.305 570.125 603C570.017 599.918 570.651 596.944 569.389 594C565.575 585.101 556.148 579.337 553 570C566.533 580.912 575.612 597.158 587.171 610C588.977 612.007 596.742 621.921 600.11 618.914C601.973 617.25 599.009 614.215 598.015 612.999C593.864 607.919 590.154 602.751 586.343 597.424C578.723 586.77 571.233 575.38 562.542 565.576C555.097 557.178 544.286 548.769 538.758 539C537.384 536.572 537.152 533.559 536 531C543.105 534.313 548.095 541.412 553.714 546.741C566.513 558.877 578.938 571.079 590.975 584C596.483 589.912 602.04 600.574 610 603C610.745 596.714 607.059 592.75 603.338 588C597.369 580.382 589.84 573.373 585 565C589.503 567.008 592.468 570.27 596.08 573.532C597.581 574.886 599.675 576.939 601.923 576.252C608.225 574.328 597.789 563.915 595.961 562C587.629 553.272 579.003 544.859 569.996 536.875C566.05 533.377 561.99 527.745 557 526L557 522C554.169 520.483 552.738 518.707 551 516C554.71 517.658 557.33 519.95 560 523C563.932 524.003 566.579 526.827 569 530L571 529C575.274 536.453 584.606 540.359 590.83 546.081C599.313 553.88 606.84 562.84 615 571C619.038 575.038 622.779 579.565 628 582L629 580C621.105 566.734 610.88 555.605 601.749 543.174C597.734 537.707 595.067 531.385 591 526C598.518 530.035 606.448 534.555 613.424 539.478C617.04 542.029 620.705 546.456 624.941 547.863C628.032 548.89 628.604 546.363 629 544C633.966 546.316 637.485 550.573 641.7 554.022C644.486 556.301 648.184 559.48 651.981 559.588C653.781 559.639 656.3 558.573 655.503 556.331C654.162 552.56 645.951 548.778 643 545.961C631.296 534.79 619.13 524.815 606 515.363C601.362 512.024 593.763 508.726 592 503L587 503L587 500C597.927 499.651 605.963 505.912 615.089 511.208C626.482 517.82 638.794 522.769 649.7 530.265C656.966 535.26 665.132 543.656 674 545C673.981 542.862 674.646 539.998 673.752 538.004C671.853 533.765 665.588 530.921 662 528.255C652.479 521.182 640.127 516.868 632 508C636.676 508.512 640.365 512.248 645 512.303C648.762 512.348 656.096 506.851 652.377 502.811C648.924 499.06 641.578 497.526 637 495.573C628.65 492.009 620.318 488.354 612 484.716C606.702 482.399 601.862 479.377 596 479L596 477C598.988 476.776 601.854 474.858 604.754 475.008C613.415 475.458 622.585 479.816 630.561 482.882C635.159 484.65 640.172 485.311 644.834 487.166C659.511 493.006 673.72 500.955 690 501C689.323 492.282 679.748 493.151 673 491.636C665.545 489.962 659.112 485.508 652 482.941C646.32 480.89 640.44 480.448 636 476L641 476L640 473C638.805 473.598 639.023 473.466 638 475C635.713 471.996 632.531 472.242 629 471.536C624.879 470.713 620.92 469.054 617 467.576C606.835 463.744 595.992 461.035 586 456.965C576.33 453.026 567.846 446.577 558 443C565.235 442.776 571.826 446.632 579 447C578.079 441.355 573.724 440.766 569 438.692C559.401 434.478 549.296 430.131 539 428C547.455 427.095 556.189 431.901 564 434.75C578.037 439.87 592.656 444.841 607 449L604 452C604.472 453.416 604.814 453.814 606 455C600.802 456.13 596.171 454.668 591 454C594.418 459.591 605.003 459.988 611 461.709C630.022 467.169 648.361 475.505 668 478C666.77 470.83 655.244 467.798 649 466C655.429 464.153 663.253 466.09 670 465.996C673.072 465.953 677.26 465.957 678.914 462.777C679.977 460.733 679.017 458.641 676.851 458.028C672.194 456.71 665.93 457.922 661 457.282C648.951 455.717 637.747 452.413 626 449.475C617.391 447.322 608.824 446.216 602 440C614.854 440.001 627.305 444.219 640 446.134C644.698 446.843 649.208 448.542 654 447.544C658.281 446.652 665.984 447.098 669.401 444.436C672.485 442.034 674.636 438.422 671 436C678.839 433.684 686.991 436.934 695 437L695 433C687.273 430.101 678.22 428.65 670 428C669.913 420.657 667.073 419.064 660 419C660.572 416.623 660.891 414.442 661 412C668.334 412.927 675.676 413.855 683 414.87C687.678 415.518 691.451 416.608 694 412C682.05 406.95 666.8 406.348 654 404.715C637.342 402.588 620.851 398.002 604 398L604 396C608.11 395.954 612.005 394.116 616.015 394.34C622.719 394.715 629.365 396.774 636 397.715C650.654 399.792 665.354 401.26 680 403.427C687.988 404.61 695.913 406.933 704 407L704 403C694.295 400.775 684.758 397.856 675 395.804C664.727 393.644 654.187 392.51 644 390C650.734 387.871 658.93 386.93 666 387.019C671.248 387.084 676.116 389.2 678 383C669.172 380.892 660.935 381.61 652 381.961C634.635 382.645 617.383 385 600 385z"/>
<path style="fill:#bb4767; stroke:none;" d="M575 396C573.028 401.364 569.145 401 564 401C554.658 401.001 545.382 400 536 400C544.01 403.881 553.553 404.796 562 407.591C577.177 412.612 593.701 425.941 610 420C604.393 413.817 594.023 412.512 586 411L588 407C585.783 405.837 584.606 404.914 583 403C586.122 402.974 588.961 402.724 592 402C589.744 394.401 581.479 396 575 396z"/>
<path style="fill:#bb4767; stroke:none;" d="M230 398C234.183 403.795 248.406 399.004 255 399C247.911 396.025 237.55 397.677 230 398M607 403C609.308 404.759 611.092 404.917 614 405C611.689 403.607 609.691 403.235 607 403z"/>
<path style="fill:#d76786; stroke:none;" d="M228 414C226.766 408.242 215.225 412.815 211 413.861C195.95 417.589 180.748 420.785 166 425.667C162.343 426.877 153 427.852 153 432L146 431C145.436 435.315 137.479 435.07 134 437C140.594 439.767 149.269 437.391 156 435.997C167.678 433.578 179.379 430.784 191 428.113C197.752 426.561 205.074 423.653 212 425C199.165 427.947 186.705 432.215 174 435.522C168.149 437.046 161.555 436.874 161 444C169.34 445.185 178.887 442.366 187 440.374C198.839 437.467 211.602 435.276 223 431L221 426L226 424L225 421C243.906 415.687 264.306 418.68 283 413L282 407C263.793 407 245.578 409.404 228 414M165 459C161.019 459.619 157.256 461.633 155 465C174.385 463.307 191.625 449.692 211 448C211.178 450.597 211.499 451.887 213 454C206.092 456.032 199.639 460.197 193 463.064C187.55 465.418 181.203 466.837 176.209 470.123C173.18 472.117 171.173 475.075 168 477C172.92 480.564 179.867 475.752 185 474.003C200.337 468.777 214.718 461.172 230 456C228.846 453.751 228.249 453.154 226 452C232.671 444.697 247.22 440.501 257 440C251.3 442.182 240.215 442.636 238 449C255.097 447.604 272.941 441.899 289 436L287 433C289.987 431.849 292.882 430.739 296 430C293.512 426.273 282.35 426.285 277.996 427.263C262.373 430.774 247.033 435.478 232 441L234 435C239.055 437.257 244.837 435.072 250 433.54C261.312 430.183 272.657 427.187 284 424C281.958 422.584 280.489 422.255 278 422C279.534 420.977 279.402 421.195 280 420C274.445 418.869 268.323 421.446 263 423.134C256.662 425.144 250.282 426.658 244 428.958C238.626 430.926 233.408 430.983 228 432.417C215.192 435.811 202.23 440.47 190 445.528C183.554 448.194 177.393 451.484 171 454.273C168.262 455.468 165.406 456.01 165 459z"/>
<path style="fill:#bb4767; stroke:none;" d="M599 427C600.978 430.425 604.238 431.005 608 431.588C616.419 432.893 625.474 434 634 434C623.749 429.064 610.152 428.409 599 427z"/>
<path style="fill:#bb4767; stroke:none;" d="M639 435C644.651 438.39 653.487 438.946 660 439C654.637 435.315 645.404 435.053 639 435z"/>
<path style="fill:#d76786; stroke:none;" d="M243 458C237.665 450.992 225.796 459.272 220 462.32C200.724 472.459 176.439 485.815 165 505C171.993 503.357 178.087 497.94 184 494C193.458 487.698 203.549 481.503 214 477C203.258 485.495 190.319 490.651 179 498.344C174.489 501.41 168.98 504.808 165.738 509.286C163.927 511.787 163.221 515.179 162 518C177.292 512.94 191.136 502.154 205 494.011C217.368 486.746 230.791 481.466 243 474C239.111 471.391 235.033 473.916 232 470C234.492 469.03 235.146 468.525 236 466C244.276 465.824 251.34 461.987 259 459.297C271.054 455.064 283.112 450.705 295 446L292 443C295.675 441.365 297.838 439.926 299 436C290.217 436.767 281.925 441.393 274 444.999C263.845 449.62 253.381 453.915 243 458z"/>
<path style="fill:#d76786; stroke:none;" d="M157.667 447.333C157.222 447.778 158.278 447.722 158.333 447.667C158.778 447.222 157.722 447.278 157.667 447.333M246 500C237.437 500.93 229.899 508.259 223 513.025C207.991 523.395 187.509 538.023 181.409 556C179.767 560.839 180 565.968 180 571C186.475 564.442 188.419 554.897 195 548C193.531 559.218 205.95 548.308 210 546C207.442 550.959 203.561 554.089 204 560C213.533 554.541 221.491 543.756 230 536.59C239.748 528.38 250.195 521.057 260 512.919C264.542 509.15 269.487 505.773 273 501C265.646 502.892 258.659 512.144 251 508C252.924 506.999 253.098 506.923 254 505L251 505C251.575 502.604 251.475 502.513 249 502C254.007 499.735 258.845 501.994 263.996 499.686C275.35 494.599 284.829 485.534 296 480C295.463 477.347 294.788 476.035 293 474C298.262 470.634 306.859 466.464 310 461C294.338 465.991 281.904 480.033 267 487C280.216 476.519 294.71 466.962 309 458C304.751 450.376 295.974 459.594 291.09 462.688C279.336 470.133 267.716 478.471 256.91 487.239C252.372 490.922 246.962 493.892 246 500z"/>
<path style="fill:#d76786; stroke:none;" d="M250 476L251 480C248.021 481.514 245.14 482.839 242 484L242 480C234.993 481.023 229.733 486.822 224 490.645C211.363 499.073 197.499 505.887 186 515.954C180.837 520.474 175.914 523.849 175 531C182.923 527.953 190.917 521.774 198 517L197 512L203 512L200 516C220.033 514.364 235.059 500.754 251 490C248.568 488.683 246.752 488.723 244 489C256.22 473.752 278.54 468.573 295 459C293.154 458.532 291.931 458.699 290 459C291.103 457.543 291.543 457.103 293 456C287.829 454.562 282.354 458.664 278 461.128C268.808 466.33 259.316 471.041 250 476z"/>
<path style="fill:#d76786; stroke:none;" d="M202 573C208.795 571.924 212.289 565.637 217.17 561.39C225.121 554.47 234.048 546.6 243 541C235.307 548.693 227.87 556.608 220.005 564.089C217.629 566.349 213.045 569.993 216 573L213 575C221.038 580.071 226.072 563.353 234 563C243.808 550.393 259.471 542.947 269 530L264 529C265.009 524.386 267.962 522.028 269.646 517.911C270.677 515.389 269.693 512.659 271.502 510.379C275.046 505.91 282.358 502.611 287.001 499.255C296.879 492.117 306.212 484.255 316 477L316 475C305.447 472.743 294.894 486.157 287 492C280.588 496.746 273.917 501.773 268.259 507.414C264.664 510.998 261.801 515.189 257.961 518.562C246.876 528.296 234.971 536.957 224 546.831C215.969 554.059 204.168 561.755 202 573z"/>
<path style="fill:#bb4767; stroke:none;" d="M596 477L596 479C602.993 479.876 609.497 484.169 616 486.799C633.445 493.856 650.133 502.846 668 508.67C674.671 510.844 683.803 515.648 690.941 514.812C695.437 514.285 695.436 509.463 691.852 507.499C687.11 504.901 681.067 504.388 676 502.565C665.826 498.905 656.892 493.407 646 492C648.106 491.356 649.795 491.094 652 491L652 489C640.767 487.537 628.817 481.554 618 478.001C614.055 476.705 608.084 474.34 603.92 474.558C601.243 474.698 598.731 476.593 596 477z"/>
<path style="fill:#d76786; stroke:none;" d="M319 484C309.801 492.294 302.012 502.531 294.056 512C291.794 514.692 284.587 521.626 291 523C288.883 526.359 287.278 528.991 287 533C292.158 531.414 294.626 526.174 298.275 522.424C304.953 515.561 311.182 508.321 317.55 501.174C321.31 496.954 325.62 493.182 328 488C326.048 487.489 325.543 487.267 324 486C321.366 486.273 320.831 485.845 319 484M335 488C326.771 496.935 320.515 507.307 313.255 517C308.206 523.74 301.51 530.338 298 538C300.609 537.341 302.64 536.313 305 535C302.207 540.558 301.975 543.495 305 549C302.128 549.807 299.92 550.759 297 550C278.748 571.401 265.903 597.04 249.863 620C244.408 627.808 234.068 640.135 238 650L240 650C244.806 642.149 250.107 634.701 255.139 627C258.736 621.495 261.894 615.22 267 611C265.934 613.971 265.391 615.905 266 619C271.867 616.141 275.081 610.013 279.015 605C286.264 595.761 293.199 586.995 299.425 577C303.21 570.925 307.353 561.206 315 560C308.247 576.211 299.017 592.54 290.656 608C282.348 623.361 273.595 637.795 270 655C276.164 652.207 281.129 642.5 285 637C296.528 620.619 306.868 602.725 316.222 585C319.254 579.255 322.474 573.578 325.806 568C327.462 565.227 330.303 561.941 326 561C328.13 558.721 329.701 556.819 331 554L335 555C337.72 550.731 339.601 545.731 343 542C341.665 546.634 339.252 550.572 337.048 554.829C336.416 556.049 335.103 558.067 336.154 559.427C339.253 563.442 343.756 552.667 344.525 551C349.642 539.911 356.927 527.037 359 515C356.965 513.774 356.674 513.297 356 511L354 512C354.703 508.054 356.47 504.681 358 501C356.42 501.684 356.223 501.805 355 503C349.911 498.73 348.535 508.113 344 504C340.279 509.476 336.618 514.896 334 521C334.569 511.502 342.409 506.643 345 498C343.42 497.316 343.223 497.195 342 496C337.906 498.195 336.686 502.142 334.34 506C329.907 513.287 325.656 520.581 321.438 528C318.553 533.075 316.409 539.378 310 540C316.695 527.929 327.321 517.474 333 505L327 505C328.558 499.36 335.177 493.386 335 488z"/>
<path style="fill:#bb4767; stroke:none;" d="M572 489C571.798 490.85 571.798 492.15 572 494L574 494C574.562 492.199 574.824 490.878 575 489L572 489M491 492C493.112 497.865 499.553 505.039 505 508C502.251 502.114 496.67 495.203 491 492M531 492C534.827 498.717 540.986 505.806 549 506C544.406 499.949 538.13 494.742 531 492M576 493C577.795 495.508 579.492 497.205 582 499L585 494L576 493z"/>
<path style="fill:#d76786; stroke:none;" d="M466 503L470 513C465.096 511.199 464.4 504.938 460 504C460.852 509.037 463.105 512.858 458 516C455.914 510.976 452.783 505.769 448 503L448 506C446.805 504.777 446.684 504.58 446 503C445.126 505.052 445.047 506.747 445 509L442 509C442.415 513.754 443.898 518.192 444 523C439.07 518.499 436.357 512.501 435 506L433 506L433 511L427 508C427.819 511.193 428.456 513.713 428 517C430.765 520.641 432.037 527.435 432.919 532.001C434.851 542.001 437.878 551.716 437.996 562C438.066 568.136 437.701 572.753 432 576C432 574.203 431.986 574.479 431 573C428.392 577.751 430.288 582.092 431.487 587C432.609 591.592 432.892 596.335 433.586 600.996C435.826 616.04 438.547 630.994 441.081 646C442.65 655.294 445.061 664.503 444 674C445.801 674.562 447.122 674.824 449 675C449 661.141 447.48 647.767 446.17 634C445.683 628.885 446.417 623.672 445.651 618.576C444.111 608.317 437.488 599.581 440 589C444.646 595.201 443.493 603.4 445.062 610.714C448.154 625.121 453.959 638.113 454.975 653C455.388 659.046 453.607 674.878 460 677C462.206 667.736 461.043 657.412 460.416 648C459.338 631.825 458.735 614.805 455 599C460.466 600.725 461.098 607.014 462.653 612C466.848 625.458 468.135 639.061 469.09 653C469.442 658.15 468.602 666.828 473 670C474.655 664.401 475.243 656.715 474 651C483.269 646.894 475.008 628.808 474 621C477.748 628.427 479.921 636.929 481.87 645C482.41 647.24 482.507 652.399 485.258 653.168C487.901 653.907 488.798 650.929 488.771 648.956C488.707 644.335 486.991 639.451 485.873 635C481.05 615.794 473.457 597.267 469 578C467.985 579.139 467.691 579.612 467 581C463.208 575.728 464.427 570.106 463.116 564C460.207 550.454 455.77 536.708 454 523C464.572 534.689 469.971 554.145 474.822 569C476.55 574.293 477.518 585.645 485 582C487.014 592.449 494.761 601.645 497.266 612C498.478 617.009 498.715 626.876 503 630L503 622C510.632 629.898 507.344 644.238 511 654C517.064 649.626 512.925 640.103 512.184 634C511.28 626.545 510.257 620.035 507.188 613.04C505.319 608.779 501.999 605.574 500.764 600.996C498.618 593.04 499.878 584.982 499 577L495 581C495.895 583.042 496.536 584.828 497 587C493.473 581.667 491.551 574.918 489.053 569C487.012 564.165 483.868 559.869 482 555L487 555C486.043 548.84 482.684 543.516 479.92 538C475.82 529.82 471.987 521.666 467 514C485.274 526.691 489.553 550.675 505 566C502.04 570.703 506.808 576.028 508 581L503 581C506.893 590.349 512.877 598.388 518.074 607C521.831 613.225 524.731 619.846 528.653 626C530.793 629.358 532.163 634.928 535.389 637.353C536.969 638.54 539.465 638.675 540.342 636.562C542.026 632.501 536.076 624.417 534.127 621C530.769 615.113 528.044 608.724 524.466 603.004C520.373 596.461 514.963 590.63 513 583C516.312 585.68 520.145 586.828 523.127 590.058C528.154 595.503 530.968 602.446 534.247 609C539.094 618.688 543.725 628.08 548 638L550 638C551.786 629.718 549.331 623.267 545.233 616.089C542.763 611.764 538.334 607.033 540 602C527.885 578.97 514.105 556.982 502 534C507.718 538.593 511.815 545.684 520 544L520 541C511.599 535.252 505.378 527.135 499.421 518.985C495.5 513.622 492.107 507.046 486 504C484.921 506.056 483.664 507.359 482 509L477 502C473.3 502.687 469.763 502.99 466 503z"/>
<path style="fill:#bb4767; stroke:none;" d="M219 506L225 504C222.12 502.902 220.65 503.445 219 506z"/>
<path style="fill:#d76786; stroke:none;" d="M355 555L359 552C357.851 555.054 356.44 557.75 356 561C353.714 561.008 352.118 560.838 350 560C348.334 561.802 347.155 562.89 345 564C341.016 601.634 321.355 637.689 323 676C328.114 672.999 332.377 666.265 335 661C342.137 662.606 344.612 654.671 346.481 649C349.763 639.043 352.619 628.941 356.003 619C358.331 612.162 361.367 605.245 362 598C360.053 597.547 358.731 597.006 357 596C355.814 597.186 355.416 597.528 354 598C354.149 591.025 356.264 583.65 358.347 577C359.628 572.913 361.531 569.296 361 565C357.682 569.049 357.076 575.049 355.495 580C351.651 592.046 348.177 604.096 343.948 616C341.949 621.628 341.005 628.457 337 633C337.87 622.351 342.055 611.262 345 601C349.686 584.672 355.61 569.648 362.035 554C363.776 549.762 364.456 545.142 366.399 541C368.955 535.551 373.454 531.361 376 526C371.362 522.982 374.029 517.997 375.282 513.579C375.826 511.659 376.176 508.695 373.726 507.89C368.945 506.321 368.249 515.245 367.561 517.985C364.39 530.61 358.098 542.528 355 555z"/>
<path style="fill:#bb4767; stroke:none;" d="M172 511C173.949 510.064 174.55 509.608 176 508C173.703 508.674 173.226 508.965 172 511M632 508C635.256 513.367 645.038 519.804 651 521.86C654.049 522.911 658.14 521.572 658.534 517.921C659.47 509.239 647.295 512.735 643.039 511.647C638.98 510.61 636.39 508.239 632 508M478 509C481.49 518.534 489.391 525.81 493 535C491.483 534.043 490.662 533.613 489 533C492.238 539.908 496.806 546.003 500 553C502.085 551.533 503.557 549.564 504 553C506.015 547.364 501.727 542.66 498.525 538.385C491.818 529.433 487.788 515.23 478 509z"/>
<path style="fill:#d76786; stroke:none;" d="M405 511C405 517.439 404.807 523.615 404 530C402.174 529.424 400.632 528.946 399 528C396.708 533.463 398 541.113 398 547C398 556.155 396.39 564.92 396 574L400 574C401.493 570.802 404.579 568.299 405.566 564.911C407.95 556.734 406 545.503 406 537C408.262 543.343 408 550.331 408 557C408 566.576 408.974 574.603 404 583C402.483 582.043 401.661 581.613 400 581C398.67 582.753 397.753 583.67 396 585L395 581C391.703 587.202 393.152 595.19 392.985 602C392.683 614.348 392 626.603 392 639C392 644.802 389.379 656.45 398 655C398.458 657.231 400.408 670.001 404.437 667.593C406.85 666.15 405.07 660.258 405.015 658C404.782 648.437 405.682 638.589 406.036 629.001C406.42 618.596 405.907 607.055 407.699 596.808C408.292 593.417 411.333 591.433 411.856 587.96C413.457 577.317 413 565.767 413 555C413 540.604 413.131 526.328 412 512C410.018 512.465 409.594 512.703 408 514C406.999 512.076 406.923 511.902 405 511M415 511C415.086 521.332 417.785 531.706 418.831 542C420.327 556.726 421 571.191 421 586L425 586L425 554C427.261 559.256 427.984 564.309 428 570C434.389 568.934 433.337 562.28 432.715 557C431.164 543.862 429.869 530.873 427 518C425.902 520.613 426.007 523.164 426 526C423.636 526.482 423.482 526.636 423 529C420.171 522.915 420.226 515.564 415 511z"/>
<path style="fill:#d76786; stroke:none;" d="M392 512C391.014 513.479 391 513.203 391 515C389.521 514.014 389.797 514 388 514C385.186 520.659 384.309 528.799 384 536L382 536L382 526C380.143 528.514 379.033 530.056 376 531C373.085 545.133 369.159 560.612 369 575C373.446 573.526 373.483 569.218 374.335 565C376.271 555.413 378.578 545.827 379 536C387.04 543.672 380.05 558.688 377.986 568C376.412 575.102 373.572 581.879 371.884 589C367.484 607.57 363.685 626.364 359.576 645C357.874 652.716 353.748 667.855 360 674C361.551 668.803 361.24 663.252 362.552 658C368.879 632.693 377.209 607.902 381.38 582.004C381.935 578.562 380.669 575.333 381.307 571.961C382.663 564.792 385.489 558.83 387.456 551.985C389.056 546.417 389.253 540.673 390.31 535C391.728 527.386 393.839 519.786 394 512L392 512z"/>
<path style="fill:#bb4767; stroke:none;" d="M450 513L450 515L452 515L452 513L450 513z"/>
<path style="fill:#bb4767; stroke:none;" d="M467 514C473.001 527.569 483.362 540.446 487 555L482 555C483.193 559.989 486.505 564.309 488.617 569C491.279 574.915 493.193 581.213 496 587C496.845 584.46 496.26 583.379 495 581C496.888 579.794 497.731 578.868 499 577C499.714 588.084 498.207 598.95 504 609C505.661 605.041 505 600.263 505 596C511.804 605.555 518.466 616.529 523.752 627C526.701 632.84 530.144 638.315 533.381 643.985C534.645 646.2 535.405 648.943 537.144 650.852C539.632 653.583 545.561 653.699 545.497 648.941C545.447 645.216 542.261 641.446 541 638C533.342 638.242 532.134 630.462 528.653 625C519.562 610.736 511.545 595.626 503 581C504.85 581.202 506.15 581.202 508 581C507.326 576.522 503.04 571.049 505 567C499.393 555.679 491.612 544.503 484.591 534C479.041 525.696 476.215 518.754 467 514z"/>
<path style="fill:#bb4767; stroke:none;" d="M343 520C337.665 528.682 332.643 539.151 325 546L327 552L329 552C335.759 542.494 342.923 531.692 345 520L343 520M331 523C325.1 534.845 315.448 545.106 308 556C318.453 556.679 325.055 541.245 328.498 533.039C329.93 529.627 332.277 526.68 331 523z"/>
<path style="fill:#d76786; stroke:none;" d="M202 623C212.207 620.522 218.282 607.648 224.59 600.104C236.917 585.363 250.353 571.647 264 558C270.952 551.048 280.448 543.77 285 535L280 535C278.362 530.069 274.492 531.205 271 534.148C264.952 539.245 259.591 545.409 254 551C246.572 558.428 238.991 565.732 232.475 574C228.932 578.495 226.285 583.603 222.536 587.961C216.666 594.786 208.845 600.531 205.023 609C203.167 613.113 202.578 618.544 202 623z"/>
<path style="fill:#bb4767; stroke:none;" d="M444 543C443.598 552.364 443 561.583 443 571C443 576.163 442.464 580.901 446 585C447.429 580.166 447.074 574.986 448 570L450 570C451.001 571.924 451.078 572.099 453 573C453 562.409 451.335 552.754 447 543L444 543M473 544C473.263 549.064 475.387 553.262 477 558L480 557C477.887 552.506 476.263 547.793 473 544z"/>
<path style="fill:#d76786; stroke:none;" d="M286 551L286 547C272.057 557.264 264.121 576.636 255.166 591C253.622 593.477 245.311 604.256 250.294 606.338C255.127 608.357 261.159 597.085 263.254 594C269.766 584.411 275.716 574.481 282.424 565C286.724 558.923 292.317 552.975 295 546C291.803 547.344 289.017 549.29 286 551z"/>
<path style="fill:#bb4767; stroke:none;" d="M456 555C456 564.617 454.174 573.158 459 582C461.638 575.655 459.202 561.021 456 555z"/>
<path style="fill:#bb4767; stroke:none;" d="M505 567C507.093 573.12 510.638 579.777 517 582C516.071 575.606 511.957 567.55 505 567z"/>
<path style="fill:#d76786; stroke:none;" d="M493 571C493.899 573.124 493.876 573.101 496 574C495.101 571.876 495.124 571.899 493 571z"/>
<path style="fill:#d76786; stroke:none;" d="M416 572L416 582C417.346 578.793 417.346 575.207 416 572z"/>
<path style="fill:#d76786; stroke:none;" d="M334 574C327.289 590.838 318.871 607.084 312.377 624C311.149 627.197 305.179 637.996 308.817 640.914C310.284 642.09 312.052 640.806 313.038 639.677C315.761 636.56 317.467 631.752 319.139 628C323.608 617.973 328.212 607.991 332.769 598C335.781 591.398 339.726 584.145 341 577C338.753 579.157 337.268 581.158 336 584C334.692 580.4 335.475 577.708 336 574L334 574z"/>
<path style="fill:#d76786; stroke:none;" d="M416 583C416.003 610.015 420 636.928 420 664C425.541 662.052 424 654.91 424 650C426.549 654.598 426.444 667.817 432.999 668.534C440.379 669.341 435.502 655.525 434.92 652C431.802 633.136 430 613.101 430 594C426.854 595.21 424.577 596.823 422 599C419.859 593.523 418.124 588.99 418 583L416 583z"/>
<path style="fill:#bb4767; stroke:none;" d="M513 583C514.614 593.134 522.629 599.292 528.363 607.039C534.584 615.445 538.881 626.704 543.745 636C547.064 642.345 547.917 651.731 556 652C555.98 644.763 555.548 636.223 550 631C550.262 633.428 550.262 635.572 550 638L548 638C544.563 627.255 539.272 618.043 534.247 608C530.855 601.221 527.992 593.514 522.27 588.303C519.615 585.886 516.036 584.864 513 583z"/>

<path style="fill:#bb4767; stroke:none;" d="M512 628C512.004 633.862 513.716 639.237 513.959 645C514.114 648.661 512.689 651.657 512.429 655.17C512.144 659.022 513.515 663.183 514 667L520 667C519.999 655.087 518.465 638.29 512 628z"/>
<path style="fill:#d76786; stroke:none;" d="M503 643C502.917 645.908 502.759 647.692 501 650L503 654C504.431 650.59 504.431 646.41 503 643z"/>
<path style="fill:#d76786; stroke:none;" d="M502 666L502 673C503.059 670.466 503.059 668.534 502 666z"/>
</svg>
