<?xml version="1.0" standalone="yes"?>
<svg xmlns="http://www.w3.org/2000/svg" width="1600" height="435">
<path style="fill:#ff00dc; stroke:none;" d="M260 38C261.337 39.2797 262.4 40.0305 264 41C257.694 44.4956 253.165 50.6886 247.95 55.5864C235.633 67.1544 223.12 79.1146 212.155 92C208.077 96.7927 205.224 104.422 200.582 108.412C195.681 112.624 185.139 111.517 179 113.519C163.05 118.717 145.912 126.506 133.17 137.604C122.964 146.493 113.407 155.806 105.181 166.59C101.242 171.755 98.0776 180.269 91.9568 183.181C86.2001 185.92 78.2517 185.538 72 186.586C56.3129 189.217 40.2389 191.302 25 196.025C15.6351 198.928 4.13476 204.72 3.38889 216.08C2.72954 226.123 15.131 232.463 22 236.937C29.2644 241.668 35.6335 247.576 43 252.218C55.6103 260.165 69.4788 266.92 83 273.164C87.2398 275.122 92.3522 276.801 95.581 280.329C98.743 283.784 100.183 289.655 101.731 294.014C102.748 296.876 104.998 300.091 104 303C110.542 308.519 115.151 315.877 121.275 321.92C132.023 332.526 143.877 341.225 157 348.634C162.575 351.782 168.047 355.253 174 357.653C176.878 358.813 181.175 359.772 182.227 363.133C183.699 367.836 180.659 373.51 179.769 378.039C178.603 383.973 178.366 390.054 177.231 395.985C175.854 403.185 173.613 408.501 175 416L171 416C177.521 442.59 211.85 435.442 230 427.37C260.349 413.871 282.327 388.224 302.484 362.754C305.301 359.193 306.686 354.724 309.51 351.289C318.276 340.626 333.651 336.34 341 324L337 323L343 318C343.533 313.471 347.711 308.099 351 305C351.062 301.722 351.619 300.248 354 298L352 295L356 296C353.933 289.045 356 281.22 356 274C365.638 271.162 374.333 260.312 369.467 250.17C367.964 247.038 360.344 242.407 361.342 239C362.146 236.255 365.953 234.381 368.17 232.939C373.643 229.378 385.471 219.868 392 224C390.314 223.782 389.684 223.776 388 224C393.253 226.049 399.867 222.693 405 221.117C415.841 217.787 435.537 212.143 434.612 197.08C434.473 194.814 433.248 192.115 432.402 190.025C431.333 187.383 429.622 185.109 427.532 183.174C416.181 172.665 401.454 176.942 388 178.711C377.348 180.111 366.65 181.002 356 182.579C349.698 183.512 338.22 187.208 332.185 184.892C328.327 183.411 325.275 177.487 323.681 173.91C320.553 166.89 325.122 161.651 326.522 154.961C327.871 148.507 327.017 141.61 328.09 135.039C329.629 125.609 332.639 116.15 334.78 106.83C338.414 91.0144 340.228 74.9966 342.733 59.0038C344.671 46.6333 347.269 34.7447 345.826 22.0038C345.489 19.0316 344.41 16.4748 343.065 13.8341C332.597 -6.71793 306.766 -0.63501 292 10.8148C280.913 19.4116 271.073 29.4789 260 38z"/>
<path style="fill:#fe00dc; stroke:none;" d="M259 39C245.149 55.4397 228.057 69.6383 213.211 85.25C209.403 89.2538 205.638 93.5411 202.439 98.0502C200.51 100.77 198.904 104.315 195.87 105.991C192.766 107.705 188.434 107.605 185 108.262C179.602 109.293 174.099 111.168 169 113.208C149.784 120.894 134.214 131.938 118.914 145.576C110.294 153.259 100.762 163.327 96 174L101 175C104.791 165.979 112.234 158.268 119.081 151.414C134.09 136.39 151.123 124.511 171 116.811C176.524 114.671 182.145 112.508 188 111.464C191.949 110.759 197.155 111.465 200.582 109.012C202.724 107.478 203.65 104.573 205.039 102.424C207.82 98.1218 210.962 94.0493 214.425 90.2747C229.891 73.4181 246.17 55.351 264 41C262.307 39.9376 260.96 39.4804 259 39z"/>
<path style="fill:#ff00dc; stroke:none;" d="M600 50.4244C576.911 53.4649 561.759 69.4818 548.862 88C544.367 94.454 538.422 103.072 537.213 111C536.113 118.209 535.795 128.975 537.789 136C539.26 141.186 543.428 145.608 543.983 151C547.795 188.01 552.741 225.005 557.285 262C559.795 282.437 562.052 303.435 562.961 324C563.277 331.154 563.624 342.344 573.996 340.756C582.476 339.458 581.141 329.354 580.985 323C580.528 304.328 577.454 285.627 576.089 267C574.711 248.21 571.737 229.67 569.282 211C567.318 196.064 566.004 180.822 563.385 166C562.575 161.414 562.348 156.464 561.059 152C560.268 149.264 558.633 146.819 558.135 144C557.666 141.35 558.064 138.655 557.471 136C556.128 129.979 553.348 124.353 554.471 118C555.766 110.678 560.281 103.854 564.63 98C571.773 88.3845 579.534 78.4643 590 72.3133C598.874 67.0977 610.114 67.6619 620 68.8449C648.649 72.2732 676.568 93.0954 686.452 121C692.833 139.012 689.527 153.797 682.935 171C673.642 195.253 655.604 224.596 626 224.996C616.999 225.118 606.605 226.379 598 223.137C591.88 220.831 585.117 213.818 578.394 219.009C568.817 226.405 581.447 236.378 588 239.562C595.673 243.29 604.714 243 613 243C621.354 243 629.776 243.417 638 241.639C658.576 237.191 676.534 222.545 687.467 205C690.83 199.603 692.558 193.686 695.262 188C699.897 178.25 705.091 167.595 707.471 157C710.266 144.563 708.348 127.985 704.402 116C696.794 92.8914 678.297 74.5511 658 62.5478C652.223 59.1312 646.472 55.2357 640 53.2207C628.166 49.5361 612.252 48.811 600 50.4244M1034.04 51.7431C1030.1 53.3267 1029.06 57.1101 1029.03 61C1028.98 68.9276 1029.63 79.5919 1032.74 86.956C1034.55 91.2432 1039.71 92.965 1043.96 91.2569C1048.35 89.49 1048.96 85.1924 1049 81C1049.06 73.7118 1049.09 62.801 1045.99 56.1049C1043.99 51.7781 1038.42 49.9858 1034.04 51.7431M1224 148C1211.21 149.916 1198.61 154.848 1186 157.87C1166.44 162.557 1146.67 165.957 1128 174C1127.85 156.36 1125.16 139.647 1128.25 122C1129.56 114.515 1131.81 105.283 1138.04 100.318C1142.98 96.3865 1156.2 94.8145 1162 97.2284C1166.08 98.925 1168.88 102.726 1173 104.258C1177.66 105.991 1183.21 104.02 1184.56 98.9846C1186.6 91.3759 1178.64 85.0779 1173 81.5625C1160.47 73.7571 1134.55 77.4852 1124.04 87.1844C1104.81 104.944 1108.89 138.464 1109 162C1109.02 166.549 1110.53 171.465 1109.85 175.957C1109.2 180.227 1105.22 181.452 1102 183.548C1097.18 186.681 1090.89 191.165 1087.74 196.039C1083.18 203.097 1086.75 216.304 1096.98 213.562C1100.97 212.494 1102.22 209.008 1104.49 206.003C1106.6 203.216 1109.25 201.1 1112 199C1112 220.057 1113.95 242.216 1117.44 263C1119.27 273.964 1123.75 284.877 1124.74 295.91C1125.15 300.552 1121.57 304.062 1122.33 309C1123.45 316.301 1128.26 327.421 1133.39 332.772C1136.13 335.632 1140.34 336.731 1143.96 334.82C1153.91 329.567 1146.66 309.3 1144.63 301C1139.89 281.687 1135.06 261.841 1133.17 242C1132.13 231.067 1130.84 219.965 1130.09 209C1129.7 203.246 1130.06 197.713 1129 192C1140.75 190.974 1152.69 184.897 1164 181.555C1182.78 176.001 1202.77 171.729 1222 168C1221.72 181.73 1219.03 195.315 1218.09 209C1216.61 230.605 1217 252.321 1217 274C1217 289.952 1216.34 306.065 1217.04 322C1217.6 334.664 1222.6 348.121 1237 347.995C1239.4 347.974 1241.81 347.918 1244 346.821C1253.34 342.152 1261.1 330.306 1267 322C1273.63 312.659 1280.48 303.373 1287 294C1293.8 300.492 1309.9 313.7 1319.61 304.566C1322.22 302.11 1323.06 298.261 1324.21 295C1326.86 287.499 1328.38 279.817 1329.75 272C1331.92 259.604 1335.21 247.546 1336.71 235C1338.39 221.06 1338 207.025 1338 193C1340.46 199.558 1341.25 207.089 1342.41 214C1344.69 227.515 1346.97 241.319 1347.91 255C1348.71 266.606 1348.68 278.577 1351.12 290C1352.87 298.236 1350.29 320.854 1364 318.756C1369.19 317.962 1370.76 313.584 1371.56 309C1373.52 297.824 1376.13 286.951 1379.08 276C1383.07 261.178 1386.85 246.014 1393.31 232C1396.37 225.364 1400.49 219.315 1404.13 213C1411.7 199.838 1421.59 186.64 1435 179C1428.78 190.088 1428.01 204.627 1426.83 217C1423.61 250.854 1422.55 286.382 1442.21 316C1449.25 326.61 1458.93 338.596 1471 343.651C1499.68 355.664 1528.52 330.552 1540 306C1552.64 328.211 1555.44 359.338 1584 368.096C1589.06 369.648 1594.76 369 1600 369L1600 351C1595.89 351.073 1591.92 351.618 1588 350.046C1571.97 343.622 1566.43 321.51 1560.94 307C1558.06 299.412 1554.88 291.786 1552.58 284C1550.19 275.889 1555.95 266.681 1558.12 259C1561.69 246.413 1562.81 232.933 1564.57 220C1565.6 212.468 1565 204.59 1565 197C1565 188.181 1565.95 178.739 1564.7 170C1562.76 156.39 1557.45 144.05 1551.29 132C1549.08 127.694 1548.28 123.018 1545.36 119.004C1538.97 110.194 1524.63 104.018 1514 104C1509.42 103.992 1504.53 103.535 1500 104.329C1493.47 105.474 1486.7 109.612 1481 112.873C1472.69 117.627 1465.41 124.756 1459.21 132C1454.43 137.58 1452.07 145.651 1446.67 150.581C1442.81 154.107 1436.57 155.749 1432 158.309C1424.05 162.76 1416.46 168.609 1410 175.004C1388.68 196.101 1373.56 225.102 1366 254C1363.39 245.183 1363.84 234.239 1362.83 225C1361.23 210.262 1357.92 195.443 1354.65 181C1352.97 173.588 1352.14 163.518 1347.99 157.044C1340.85 145.892 1327.51 156.156 1318 156.096C1310.21 156.046 1303.84 151.868 1296 156.14C1288.25 160.363 1284.09 169.548 1280.17 177C1270.62 195.12 1259 215.06 1259 236C1259 247.204 1262.28 255.073 1267.25 265C1269.25 269.002 1274.55 275.365 1273.28 280C1271.86 285.184 1266.39 289.757 1263.29 294C1258.31 300.816 1254.11 308.208 1249.08 315C1245.52 319.805 1240.87 323.725 1238 329C1235 323.014 1235.35 317.49 1234.91 311C1234.27 301.628 1234 292.421 1234 283C1234 253.873 1234.74 224.941 1237.83 196C1238.78 187.163 1238.01 176.568 1240.32 168.055C1242.25 160.941 1253.47 162.789 1255.56 154.985C1258.12 145.431 1249.41 142.646 1242 144C1244.93 131.682 1243.93 118.453 1246.38 106C1248.48 95.2602 1253.1 84.9987 1254 74C1257.26 77.1878 1261.7 80.1062 1264.06 84.0394C1266.77 88.5521 1266.42 94.7217 1270.42 98.5663C1276.3 104.222 1284.66 99.3268 1284.94 92C1285.44 78.798 1277.1 69.7346 1267.83 61.7184C1263.23 57.7457 1257.39 53.086 1251 53.0864C1239.31 53.0872 1236.83 67.0049 1235 76C1230.11 99.9498 1224.02 123.294 1224 148z"/>
<path style="fill:#fe00dc; stroke:none;" d="M290 70C289.79 71.8468 289.806 73.1433 290 75C283.964 74.7746 280.437 79.6776 276.268 83.5C265.889 93.0157 255.123 103.473 247 115C254.583 117.425 262.449 118.853 270 121.355C272.905 122.317 276.59 124.466 279.656 123.018C284.102 120.92 283.844 113.11 284.59 109.004C286.932 96.1188 291.999 83.1451 292 70L290 70z"/>
<path style="fill:#ff00dc; stroke:none;" d="M920 318C916.954 311.907 909.231 310.203 904.703 316.133C900.31 321.888 897.481 337.322 901.179 343.891C906.426 353.212 918.66 344.332 924 340.069C939.142 327.982 952.04 310.259 952.961 290C954.069 265.625 953.16 234.91 938.971 214C924.533 192.723 899.976 180.175 890.969 155C884.682 137.426 895.153 119.983 908.089 108.616C913.274 104.061 924.452 101.981 924.847 93.9992C925.378 83.2772 911.683 83.5787 905 87.3673C891.763 94.8713 879.952 109.96 874.464 124C866.04 145.551 874.855 172.084 889.213 189C898.957 200.48 912.117 208.837 921.076 221C929.653 232.645 931.493 246.164 933.754 260C936.823 278.786 936.86 305.096 920 318M1034.02 94.7462C1028.21 96.9504 1028.01 102.723 1028 108C1027.98 118.819 1030.14 128.397 1031.7 139C1037.51 178.413 1045.32 217.454 1050.58 257C1051.81 266.27 1048.9 277.012 1051.43 285.985C1052.82 290.887 1058.3 293.128 1062.96 291.257C1067.37 289.485 1067.94 285.195 1068 281C1068.13 271.671 1068.02 262.33 1068 253C1067.97 234.387 1063.72 215.263 1060.42 197C1056.58 175.689 1053.14 154.249 1049.39 133C1048.11 125.759 1045.68 118.345 1045.21 111C1044.98 107.345 1046.62 103.578 1045.25 100.015C1043.57 95.6095 1038.51 93.0376 1034.02 94.7462M818 187C821.974 200.414 821.824 216.095 823.17 230C825.63 255.427 829.329 280.64 832.167 306C833.253 315.706 835.907 342.269 850.957 337.346C854.518 336.182 856.174 333.164 857.741 329.996C861.089 323.224 865.983 312.754 864.757 305.001C863.527 297.223 855.971 296.13 850 299C844.756 270.773 842.89 241.544 839.834 213C837.317 189.491 834.538 166.325 830.754 143C829.558 135.626 830.86 123.405 826.258 117.224C824.448 114.792 821.342 113.577 819 111.742C809.172 104.042 796.002 97.0793 783 101.728C777.604 103.657 772.849 108.855 769.105 113C764.665 117.916 761.851 124.28 758.579 130C747.695 149.028 740.59 171.089 739.089 193C737.317 218.877 738.744 247.294 750.042 271C752.78 276.743 757.092 281.765 760.656 287C767.745 297.412 779.994 316.092 794.957 305.196C803.617 298.889 806.809 282.957 808.8 273C814.465 244.672 815.737 215.673 818 187M1003 154C1013.1 148.749 1011.9 125.946 1007.6 117C1004.87 111.328 999.739 106.397 993.015 108.704C985.917 111.139 985.011 118.551 985 125C984.976 139.505 984.843 153.623 986.87 168C989.694 188.036 997.594 207.605 1003.09 227C1009.29 248.863 1013.55 270.618 1017.29 293C1020.33 311.259 1022.63 330.426 1020.9 349C1020.61 352.021 1019.68 355.258 1018.36 357.996C1017.32 360.161 1015.87 361.907 1013.96 363.363C998.36 375.24 990.169 352.542 979.911 345.742C975.582 342.873 969.188 344.198 967.01 349.105C963.751 356.445 971.394 364.72 975.669 369.985C989.177 386.619 1013.42 390.517 1028.96 374.957C1039.53 364.367 1039 349.814 1039 336C1039 327.967 1039.24 319.979 1038.29 312C1036.14 294.046 1034.17 275.704 1030.33 258C1024.26 229.961 1014.62 202.728 1007.29 175C1005.45 168.073 1004.71 160.942 1003 154z"/>
<path style="fill:#fe00db; stroke:none;" d="M201 145L201 149C219.095 149 236.758 152.071 254 157.67C260.031 159.628 267.873 161.121 272.552 165.753C275.536 168.708 273.604 172.442 273.184 176C272.539 181.474 273.232 186.869 275.666 191.83C280.128 200.923 285.197 209.852 290.108 218.715C292.773 223.524 296.701 228.62 298.022 234.015C299.77 241.15 295.954 248.564 297.681 255.999C299.138 262.273 304.651 264.513 306.991 270.039C312.002 281.879 301.656 296.472 293.711 304.08C286.112 311.356 276.983 317.011 268 322.4C261.466 326.321 254.647 330.423 247 331.675C233.77 333.842 218.631 330.674 206 326.795C198.98 324.639 192.288 321.352 186 317.596C180.814 314.499 177.291 311.035 171 312C174.938 316.433 180.911 319.179 186 322.194C199.956 330.465 215.958 334.099 232 335.028C238.623 335.411 244.355 336.091 251 334.583C265.703 331.248 281.555 320.452 292.778 310.694C301.987 302.688 309.999 293.567 311.778 281C312.326 277.124 313.561 269.977 309 269C310.036 267.814 310.339 267.396 311 266C306.108 262.357 300.295 255.757 300.715 249.08C301.045 243.845 303.74 239.58 302.66 234.039C301.49 228.031 297.305 222.148 294.319 216.914C289.782 208.963 285.856 200.678 281.371 192.715C279.229 188.912 279.122 182.714 276 180C284.722 168.025 275.132 160.805 264 156.864C244.214 149.859 222.012 145.002 201 145z"/>
<path style="fill:#fe00dc; stroke:none;" d="M180 152C180.65 153.3 180.147 153 182 153C164.339 159.225 155.645 173.556 142 185C142.768 186.314 142.686 186.232 144 187C139.392 189.988 136.885 196.106 142 200C141.173 203.471 139.532 209.174 142 212C138.241 214.251 133.238 217.208 131.065 221.134C129.024 224.823 129.916 229.805 134 231C127.741 237.656 134.81 247.172 135 255L137 255C136.307 259.648 137.439 261.723 142 263C139.309 251.263 134.3 239.291 134.947 227.001C135.304 220.202 143.138 217.347 145.061 210.961C146.136 207.389 146.105 203.612 145.062 200.039C144.432 197.884 142.582 195.52 143.117 193.196C144.386 187.675 151.408 180.987 155.286 177.08C167.546 164.729 183.102 151.412 201 149L201 146C193.278 146.337 187.228 149.919 180 152z"/>
<path style="fill:#fe00db; stroke:none;" d="M175 416C174.073 408.503 176.154 403.199 177.406 395.985C178.438 390.038 178.674 383.951 179.959 378.039C180.963 373.421 183.603 367.977 182.593 363.133C182.014 360.358 179.344 359.39 176.995 358.425C171.781 356.284 166.901 353.739 162 350.949C147.465 342.675 134.159 333.641 122.131 321.92C116.743 316.669 111.25 306.067 104 304C105.534 302.977 105.402 303.195 106 302C101.795 295.255 100.875 283.969 94.7755 278.799C90.9552 275.561 85.4928 273.869 81 271.767C73.5662 268.29 66.3119 264.369 59 260.641C45.8856 253.956 35.2005 244.882 23 236.937C11.6152 229.523 -3.4095 219.599 8.92824 205.443C14.2124 199.38 22.4763 196.869 30 194.884C44.131 191.156 58.61 189 73 186.586C83.5707 184.814 94.2376 186.265 99 175C94.2984 174.535 93.6586 177.914 89.8958 179.98C86.5369 181.824 81.7296 181.733 78 182.271C67.2687 183.817 56.6747 185.892 46 187.75C35.1269 189.643 22.8528 191.46 13.0008 196.69C2.70787 202.153 -4.25885 214.569 1.83951 225.91C5.67259 233.039 14.8074 236.192 21 240.885C32.1759 249.354 43.5154 257.243 56 263.691C66.6846 269.21 78.922 273.455 88.9807 279.994C95.2977 284.1 95.924 291.497 98.7569 297.83C102.412 306.001 108.16 313.925 114.285 320.41C125.854 332.658 139.53 342.663 154 351.196C160.685 355.138 169.802 357.867 175.682 362.84C178.918 365.576 177.826 370.341 177.041 373.961C175 383.369 173.153 392.749 170.843 402.09C169.533 407.387 168.351 414.89 175 416z"/>
<path style="fill:#fe00db; stroke:none;" d="M235 283C225.578 285.345 217.558 289.779 208.004 284.316C203.589 281.791 200.683 276.562 195.949 274.778C193.119 273.711 189.901 274.361 186.985 273.593C180.093 271.777 171.17 263.972 171.719 256.08C172.593 243.519 189.49 238.785 193.2 226.961C196.712 215.768 187.387 201.226 194.728 191.289C196.556 188.815 199.386 186.718 202 185.144C208.498 181.229 216.284 181.599 223 184.705C227.602 186.834 230.776 189.649 236 190C226.424 173.924 194.434 173.467 188.058 193.015C184.294 204.554 193.29 216.454 188.034 227.961C183.156 238.64 165.489 244.147 166.389 257.92C166.556 260.476 168.109 263.681 169.21 265.965C174.133 276.173 184.176 275.036 192.961 278.727C197.579 280.667 200.652 285.472 205 288.009C213.716 293.095 229.816 293.013 235 283z"/>
<path style="fill:#ff00dc; stroke:none;" d="M235 283C232.912 285.706 229.861 287.197 228 290C234.817 288.765 242.131 283.442 244.881 276.91C246.676 272.647 246.807 267.95 248.773 263.73C253.225 254.171 265.887 253.037 267.721 240.845C268.981 232.473 260.875 224.582 254 221.529C250.781 220.1 246.131 219.954 243.603 217.297C241.191 214.762 242.106 210.194 241.714 207C240.962 200.883 238.487 195.842 237 190C231.439 189.627 227.976 186.343 223 184.269C215.634 181.197 206.775 181.232 200.004 185.789C185.35 195.651 196.781 211.23 193.468 224.996C190.319 238.077 172.279 242.543 171.389 256.08C170.897 263.558 178.485 271.101 185.001 273.305C188.222 274.394 191.748 273.887 194.961 274.924C199.84 276.498 202.626 281.772 207.015 284.316C216.138 289.602 226.033 286.53 235 283z"/>
<path style="fill:#fe00dc; stroke:none;" d="M356 274C355.999 280.928 353.126 289.679 356 296L352 295C352.661 296.396 352.964 296.814 354 298C350.999 299.839 350.521 301.561 351 305C347.217 307.174 342.879 313.729 343 318C340.81 319.121 338.972 320.513 337 322C342.225 325.767 346.644 318.905 349.286 314.714C353.888 307.414 357.082 298.246 359.157 289.91C360.149 285.924 358.996 280.73 361.028 277.129C365.343 269.482 374.297 269.292 375.695 259C376.264 254.816 375.466 249.806 372.995 246.3C371.444 244.101 366.399 241.462 367.921 238.265C368.99 236.02 372.01 234.639 374 233.38C379.092 230.157 383.99 227.038 390 226C389.402 224.805 389.534 225.023 388 224L392 224C389.5 221.253 386.14 222.973 383 224.204C377.346 226.423 372.318 229.574 367.285 232.939C365.187 234.342 362.263 235.815 361.083 238.167C358.958 242.398 367.755 247.398 369.467 251.09C374.131 261.148 364.292 270.06 356 274z"/>
</svg>
