<?xml version="1.0" standalone="yes"?>
<svg xmlns="http://www.w3.org/2000/svg" width="435" height="435">
<path style="fill:#ff00dc; stroke:none;" d="M260 38C261.337 39.2797 262.4 40.0305 264 41C257.694 44.4956 253.165 50.6886 247.95 55.5864C235.633 67.1544 223.12 79.1146 212.155 92C208.077 96.7927 205.224 104.422 200.582 108.412C195.681 112.624 185.139 111.517 179 113.519C163.05 118.717 145.912 126.506 133.17 137.604C122.964 146.493 113.407 155.806 105.181 166.59C101.242 171.755 98.0776 180.269 91.9568 183.181C86.2001 185.92 78.2517 185.538 72 186.586C56.3129 189.217 40.2389 191.302 25 196.025C15.6351 198.928 4.13476 204.72 3.38889 216.08C2.72954 226.123 15.131 232.463 22 236.937C29.2644 241.668 35.6335 247.576 43 252.218C55.6103 260.165 69.4788 266.92 83 273.164C87.2398 275.122 92.3522 276.801 95.581 280.329C98.743 283.784 100.183 289.655 101.731 294.014C102.748 296.876 104.998 300.091 104 303C110.542 308.519 115.151 315.877 121.275 321.92C132.023 332.526 143.877 341.225 157 348.634C162.575 351.782 168.047 355.253 174 357.653C176.878 358.813 181.175 359.772 182.227 363.133C183.699 367.836 180.659 373.51 179.769 378.039C178.603 383.973 178.366 390.054 177.231 395.985C175.854 403.185 173.613 408.501 175 416L171 416C177.521 442.59 211.85 435.442 230 427.37C260.349 413.871 282.327 388.224 302.484 362.754C305.301 359.193 306.686 354.724 309.51 351.289C318.276 340.626 333.651 336.34 341 324L337 323L343 318C343.533 313.471 347.711 308.099 351 305C351.062 301.722 351.619 300.248 354 298L352 295L356 296C353.933 289.045 356 281.22 356 274C365.638 271.162 374.333 260.312 369.467 250.17C367.964 247.038 360.344 242.407 361.342 239C362.146 236.255 365.953 234.381 368.17 232.939C373.643 229.378 385.471 219.868 392 224C390.314 223.782 389.684 223.776 388 224C393.253 226.049 399.867 222.693 405 221.117C415.841 217.787 435.537 212.143 434.612 197.08C434.473 194.814 433.248 192.115 432.402 190.025C431.333 187.383 429.622 185.109 427.532 183.174C416.181 172.665 401.454 176.942 388 178.711C377.348 180.111 366.65 181.002 356 182.579C349.698 183.512 338.22 187.208 332.185 184.892C328.327 183.411 325.275 177.487 323.681 173.91C320.553 166.89 325.122 161.651 326.522 154.961C327.871 148.507 327.017 141.61 328.09 135.039C329.629 125.609 332.639 116.15 334.78 106.83C338.414 91.0144 340.228 74.9966 342.733 59.0038C344.671 46.6333 347.269 34.7447 345.826 22.0038C345.489 19.0316 344.41 16.4748 343.065 13.8341C332.597 -6.71793 306.766 -0.63501 292 10.8148C280.913 19.4116 271.073 29.4789 260 38z"/>
<path style="fill:#fe00dc; stroke:none;" d="M259 39C245.149 55.4397 228.057 69.6383 213.211 85.25C209.403 89.2538 205.638 93.5411 202.439 98.0502C200.51 100.77 198.904 104.315 195.87 105.991C192.766 107.705 188.434 107.605 185 108.262C179.602 109.293 174.099 111.168 169 113.208C149.784 120.894 134.214 131.938 118.914 145.576C110.294 153.259 100.762 163.327 96 174L101 175C104.791 165.979 112.234 158.268 119.081 151.414C134.09 136.39 151.123 124.511 171 116.811C176.524 114.671 182.145 112.508 188 111.464C191.949 110.759 197.155 111.465 200.582 109.012C202.724 107.478 203.65 104.573 205.039 102.424C207.82 98.1218 210.962 94.0493 214.425 90.2747C229.891 73.4181 246.17 55.351 264 41C262.307 39.9376 260.96 39.4804 259 39M290 70C289.79 71.8468 289.806 73.1433 290 75C283.964 74.7746 280.437 79.6776 276.268 83.5C265.889 93.0157 255.123 103.473 247 115C254.583 117.425 262.449 118.853 270 121.355C272.905 122.317 276.59 124.466 279.656 123.018C284.102 120.92 283.844 113.11 284.59 109.004C286.932 96.1188 291.999 83.1451 292 70L290 70z"/>
<path style="fill:#fe00db; stroke:none;" d="M201 145L201 149C219.095 149 236.758 152.071 254 157.67C260.031 159.628 267.873 161.121 272.552 165.753C275.536 168.708 273.604 172.442 273.184 176C272.539 181.474 273.232 186.869 275.666 191.83C280.128 200.923 285.197 209.852 290.108 218.715C292.773 223.524 296.701 228.62 298.022 234.015C299.77 241.15 295.954 248.564 297.681 255.999C299.138 262.273 304.651 264.513 306.991 270.039C312.002 281.879 301.656 296.472 293.711 304.08C286.112 311.356 276.983 317.011 268 322.4C261.466 326.321 254.647 330.423 247 331.675C233.77 333.842 218.631 330.674 206 326.795C198.98 324.639 192.288 321.352 186 317.596C180.814 314.499 177.291 311.035 171 312C174.938 316.433 180.911 319.179 186 322.194C199.956 330.465 215.958 334.099 232 335.028C238.623 335.411 244.355 336.091 251 334.583C265.703 331.248 281.555 320.452 292.778 310.694C301.987 302.688 309.999 293.567 311.778 281C312.326 277.124 313.561 269.977 309 269C310.036 267.814 310.339 267.396 311 266C306.108 262.357 300.295 255.757 300.715 249.08C301.045 243.845 303.74 239.58 302.66 234.039C301.49 228.031 297.305 222.148 294.319 216.914C289.782 208.963 285.856 200.678 281.371 192.715C279.229 188.912 279.122 182.714 276 180C284.722 168.025 275.132 160.805 264 156.864C244.214 149.859 222.012 145.002 201 145z"/>
<path style="fill:#fe00dc; stroke:none;" d="M180 152C180.65 153.3 180.147 153 182 153C164.339 159.225 155.645 173.556 142 185C142.768 186.314 142.686 186.232 144 187C139.392 189.988 136.885 196.106 142 200C141.173 203.471 139.532 209.174 142 212C138.241 214.251 133.238 217.208 131.065 221.134C129.024 224.823 129.916 229.805 134 231C127.741 237.656 134.81 247.172 135 255L137 255C136.307 259.648 137.439 261.723 142 263C139.309 251.263 134.3 239.291 134.947 227.001C135.304 220.202 143.138 217.347 145.061 210.961C146.136 207.389 146.105 203.612 145.062 200.039C144.432 197.884 142.582 195.52 143.117 193.196C144.386 187.675 151.408 180.987 155.286 177.08C167.546 164.729 183.102 151.412 201 149L201 146C193.278 146.337 187.228 149.919 180 152z"/>
<path style="fill:#fe00db; stroke:none;" d="M175 416C174.073 408.503 176.154 403.199 177.406 395.985C178.438 390.038 178.674 383.951 179.959 378.039C180.963 373.421 183.603 367.977 182.593 363.133C182.014 360.358 179.344 359.39 176.995 358.425C171.781 356.284 166.901 353.739 162 350.949C147.465 342.675 134.159 333.641 122.131 321.92C116.743 316.669 111.25 306.067 104 304C105.534 302.977 105.402 303.195 106 302C101.795 295.255 100.875 283.969 94.7755 278.799C90.9552 275.561 85.4928 273.869 81 271.767C73.5662 268.29 66.3119 264.369 59 260.641C45.8856 253.956 35.2005 244.882 23 236.937C11.6152 229.523 -3.4095 219.599 8.92824 205.443C14.2124 199.38 22.4763 196.869 30 194.884C44.131 191.156 58.61 189 73 186.586C83.5707 184.814 94.2376 186.265 99 175C94.2984 174.535 93.6586 177.914 89.8958 179.98C86.5369 181.824 81.7296 181.733 78 182.271C67.2687 183.817 56.6747 185.892 46 187.75C35.1269 189.643 22.8528 191.46 13.0008 196.69C2.70787 202.153 -4.25885 214.569 1.83951 225.91C5.67259 233.039 14.8074 236.192 21 240.885C32.1759 249.354 43.5154 257.243 56 263.691C66.6846 269.21 78.922 273.455 88.9807 279.994C95.2977 284.1 95.924 291.497 98.7569 297.83C102.412 306.001 108.16 313.925 114.285 320.41C125.854 332.658 139.53 342.663 154 351.196C160.685 355.138 169.802 357.867 175.682 362.84C178.918 365.576 177.826 370.341 177.041 373.961C175 383.369 173.153 392.749 170.843 402.09C169.533 407.387 168.351 414.89 175 416M235 283C225.578 285.345 217.558 289.779 208.004 284.316C203.589 281.791 200.683 276.562 195.949 274.778C193.119 273.711 189.901 274.361 186.985 273.593C180.093 271.777 171.17 263.972 171.719 256.08C172.593 243.519 189.49 238.785 193.2 226.961C196.712 215.768 187.387 201.226 194.728 191.289C196.556 188.815 199.386 186.718 202 185.144C208.498 181.229 216.284 181.599 223 184.705C227.602 186.834 230.776 189.649 236 190C226.424 173.924 194.434 173.467 188.058 193.015C184.294 204.554 193.29 216.454 188.034 227.961C183.156 238.64 165.489 244.147 166.389 257.92C166.556 260.476 168.109 263.681 169.21 265.965C174.133 276.173 184.176 275.036 192.961 278.727C197.579 280.667 200.652 285.472 205 288.009C213.716 293.095 229.816 293.013 235 283z"/>
<path style="fill:#ff00dc; stroke:none;" d="M235 283C232.912 285.706 229.861 287.197 228 290C234.817 288.765 242.131 283.442 244.881 276.91C246.676 272.647 246.807 267.95 248.773 263.73C253.225 254.171 265.887 253.037 267.721 240.845C268.981 232.473 260.875 224.582 254 221.529C250.781 220.1 246.131 219.954 243.603 217.297C241.191 214.762 242.106 210.194 241.714 207C240.962 200.883 238.487 195.842 237 190C231.439 189.627 227.976 186.343 223 184.269C215.634 181.197 206.775 181.232 200.004 185.789C185.35 195.651 196.781 211.23 193.468 224.996C190.319 238.077 172.279 242.543 171.389 256.08C170.897 263.558 178.485 271.101 185.001 273.305C188.222 274.394 191.748 273.887 194.961 274.924C199.84 276.498 202.626 281.772 207.015 284.316C216.138 289.602 226.033 286.53 235 283z"/>
<path style="fill:#fe00dc; stroke:none;" d="M356 274C355.999 280.928 353.126 289.679 356 296L352 295C352.661 296.396 352.964 296.814 354 298C350.999 299.839 350.521 301.561 351 305C347.217 307.174 342.879 313.729 343 318C340.81 319.121 338.972 320.513 337 322C342.225 325.767 346.644 318.905 349.286 314.714C353.888 307.414 357.082 298.246 359.157 289.91C360.149 285.924 358.996 280.73 361.028 277.129C365.343 269.482 374.297 269.292 375.695 259C376.264 254.816 375.466 249.806 372.995 246.3C371.444 244.101 366.399 241.462 367.921 238.265C368.99 236.02 372.01 234.639 374 233.38C379.092 230.157 383.99 227.038 390 226C389.402 224.805 389.534 225.023 388 224L392 224C389.5 221.253 386.14 222.973 383 224.204C377.346 226.423 372.318 229.574 367.285 232.939C365.187 234.342 362.263 235.815 361.083 238.167C358.958 242.398 367.755 247.398 369.467 251.09C374.131 261.148 364.292 270.06 356 274z"/>
</svg>
